<?xml version="1.0" encoding="UTF-8" standalone="no"?>
<!-- Created with Inkscape (http://www.inkscape.org/) -->

<svg
   xmlns:dc="http://purl.org/dc/elements/1.1/"
   xmlns:cc="http://creativecommons.org/ns#"
   xmlns:rdf="http://www.w3.org/1999/02/22-rdf-syntax-ns#"
   xmlns:svg="http://www.w3.org/2000/svg"
   xmlns="http://www.w3.org/2000/svg"
   xmlns:sodipodi="http://sodipodi.sourceforge.net/DTD/sodipodi-0.dtd"
   xmlns:inkscape="http://www.inkscape.org/namespaces/inkscape"
   width="123.08475mm"
   height="149.34233mm"
   viewBox="0 0 123.08475 149.34233"
   version="1.1"
   id="svg8"
   inkscape:version="0.92.1 r"
   sodipodi:docname="Mech.svg"
   inkscape:export-filename="/home/caden/Documents/Inkscape Projects/Misc./Mech.png"
   inkscape:export-xdpi="619.08765"
   inkscape:export-ydpi="619.08765">
  <defs
     id="defs2" />
  <sodipodi:namedview
     id="base"
     pagecolor="#ffffff"
     bordercolor="#666666"
     borderopacity="1.0"
     inkscape:pageopacity="0.0"
     inkscape:pageshadow="2"
     inkscape:zoom="0.70710678"
     inkscape:cx="293.7681"
     inkscape:cy="328.30943"
     inkscape:document-units="mm"
     inkscape:current-layer="layer1"
     showgrid="false"
     inkscape:pagecheckerboard="true"
     inkscape:showpageshadow="false"
     showborder="false"
     fit-margin-top="0"
     fit-margin-left="0"
     fit-margin-right="0"
     fit-margin-bottom="0"
     inkscape:window-width="1366"
     inkscape:window-height="697"
     inkscape:window-x="0"
     inkscape:window-y="29"
     inkscape:window-maximized="1"
     inkscape:object-paths="true"
     inkscape:snap-nodes="true">
    <sodipodi:guide
       position="0,0"
       orientation="0,465.20219"
       id="guide7573"
       inkscape:locked="false" />
    <sodipodi:guide
       position="123.08474,0"
       orientation="-564.44346,0"
       id="guide7575"
       inkscape:locked="false" />
    <sodipodi:guide
       position="123.08474,149.34233"
       orientation="0,-465.20219"
       id="guide7577"
       inkscape:locked="false" />
    <sodipodi:guide
       position="0,149.34233"
       orientation="564.44346,0"
       id="guide7579"
       inkscape:locked="false" />
  </sodipodi:namedview>
  <metadata
     id="metadata5">
    <rdf:RDF>
      <cc:Work
         rdf:about="">
        <dc:format>image/svg+xml</dc:format>
        <dc:type
           rdf:resource="http://purl.org/dc/dcmitype/StillImage" />
        <dc:title />
      </cc:Work>
    </rdf:RDF>
  </metadata>
  <g
     inkscape:label="Layer 1"
     inkscape:groupmode="layer"
     id="layer1"
     transform="translate(142.57842,-133.16091)">
    <path
       style="fill:#999999;stroke:#000000;stroke-width:0.99999994px;stroke-linecap:butt;stroke-linejoin:miter;stroke-opacity:1"
       d="M 208.22852,308.92773 181,316 l -16,26 42,24.5 h 49.5 l -0.008,-0.29297 0.32617,0.29297 h 49.5 l 42,-24.5 -16,-26 -27.22852,-7.07227 c -24.78382,-0.0351 -32.53408,-15.63408 -48.55199,-10.94538 -7.10604,-5.29681 -31.91051,10.92219 -48.30933,10.94538 z"
       transform="matrix(0.26458333,0,0,0.26458333,-157.69167,91.947914)"
       id="path7495"
       inkscape:connector-curvature="0"
       sodipodi:nodetypes="ccccccccccccc" />
    <path
       style="fill:#808080;stroke:#000000;stroke-width:0.26458332px;stroke-linecap:butt;stroke-linejoin:miter;stroke-opacity:1"
       d="m -89.104125,161.08012 c -1.045845,-0.0145 -2.104054,0.0332 -3.160533,0.15038 -8.185162,-0.35155 -13.168702,3.60495 -13.168702,3.60495 l 4.49481,14.02808 c 0,0 2.194085,5.17269 11.435999,5.02864 9.241467,0.14384 11.435477,-5.02864 11.435477,-5.02864 l 4.4943,-14.02808 c 0,0 -7.391117,-3.64234 -15.531351,-3.75533 z"
       id="path7487"
       inkscape:connector-curvature="0" />
    <path
       style="fill:#999999;stroke:#000000;stroke-width:0.25995046px;stroke-linecap:butt;stroke-linejoin:miter;stroke-opacity:1"
       d="m -67.316341,137.9358 c -12.05747,-0.0387 -18.775319,2.92281 -21.423566,11.40189 -0.138337,0.44293 -0.256571,0.99153 -0.357658,1.62264 -0.147815,-0.41652 -0.303812,-0.83247 -0.479371,-1.24592 -3.280079,-7.72478 -16.743244,-11.38282 -26.983974,-11.53418 -0.72824,-0.0108 -1.47503,0.0119 -2.24123,0.0698 0,0 -1.27699,15.87499 4.59718,20.10833 5.87417,4.23333 15.533822,12.43542 24.773681,12.43542 9.239859,0 18.899506,-8.20209 24.77368,-12.43542 5.874174,-4.23334 4.597178,-20.10833 4.597178,-20.10833 -2.607177,-0.19695 -5.023053,-0.30702 -7.25592,-0.3142 z"
       id="path7389"
       inkscape:connector-curvature="0"
       sodipodi:nodetypes="cccccccscccc" />
    <path
       style="fill:#808080;stroke:#000000;stroke-width:0.99999994px;stroke-linecap:butt;stroke-linejoin:miter;stroke-opacity:1"
       d="m 158,164 c -10.00003,0 -11,11 -11,11 57.99999,88.00003 111,76 111,76 0,0 53.00001,12.00003 111,-76 0,0 -0.99997,-11 -11,-11 H 258 Z"
       transform="matrix(0.26458333,0,0,0.26458333,-157.69167,91.947914)"
       id="path7384"
       inkscape:connector-curvature="0" />
    <path
       style="fill:#b3b3b3;stroke:#000000;stroke-width:0.27695936px;stroke-linecap:butt;stroke-linejoin:miter;stroke-opacity:1"
       d="m -99.714054,133.29939 c -3.997506,0 -5.125026,2.04019 -5.125026,2.04019 l 1.54526,19.08979 c 7.984593,4.69648 13.93231,4.06435 13.93231,4.06435 0,0 5.947719,0.63213 13.932306,-4.06435 l 1.545266,-19.08979 c 0,0 -1.12752,-2.04019 -5.125026,-2.04019 H -89.36151 Z"
       id="path7395"
       inkscape:connector-curvature="0" />
    <circle
       style="opacity:1;fill:#b3b3b3;fill-opacity:0.80104717;stroke:#000000;stroke-width:0.24950208;stroke-linecap:round;stroke-linejoin:round;stroke-miterlimit:4;stroke-dasharray:none;stroke-opacity:1"
       id="path7400"
       cx="-89.149124"
       cy="164.66884"
       r="3.7417734" />
    <circle
       r="3.1016567"
       cy="164.66884"
       cx="-89.149124"
       id="circle7402"
       style="opacity:1;fill:#000000;fill-opacity:1;stroke:#000000;stroke-width:0.20681898;stroke-linecap:round;stroke-linejoin:round;stroke-miterlimit:4;stroke-dasharray:none;stroke-opacity:1" />
    <circle
       r="2.46154"
       cy="164.27197"
       cx="-82.137657"
       id="circle7406"
       style="opacity:1;fill:#999999;fill-opacity:1;stroke:#000000;stroke-width:0.16413589;stroke-linecap:round;stroke-linejoin:round;stroke-miterlimit:4;stroke-dasharray:none;stroke-opacity:1" />
    <circle
       style="opacity:1;fill:#000000;fill-opacity:1;stroke:#000000;stroke-width:0.12998942;stroke-linecap:round;stroke-linejoin:round;stroke-miterlimit:4;stroke-dasharray:none;stroke-opacity:1"
       id="circle7404"
       cx="-82.137657"
       cy="164.27197"
       r="1.9494464" />
    <path
       style="fill:none;stroke:#000000;stroke-width:0.16500001;stroke-linecap:butt;stroke-linejoin:miter;stroke-miterlimit:4;stroke-dasharray:none;stroke-opacity:1"
       d="m -82.52231,161.84067 c 0,0 2.621766,-0.21261 3.153954,1.20903 0.283154,0.75639 0.45913,2.96944 -2.271769,3.64501"
       id="path7408"
       inkscape:connector-curvature="0"
       sodipodi:nodetypes="csc" />
    <path
       style="fill:#808080;stroke:#000000;stroke-width:0.29874286px;stroke-linecap:butt;stroke-linejoin:miter;stroke-opacity:1"
       d="m -116.16144,144.72934 c 0,0 -3.06636,0.24012 -3.06636,5.28261 0,5.04248 2.60176,6.72333 3.99556,6.84338 1.3938,0.12 1.8584,-10.3251 -0.9292,-12.12599 z"
       id="path7401"
       inkscape:connector-curvature="0" />
    <path
       inkscape:connector-curvature="0"
       id="path7403"
       d="m -62.686652,145.19419 c 0,0 3.069734,0.23097 3.069734,5.08133 0,4.85035 -2.604615,6.46715 -3.999952,6.58263 -1.395327,0.11543 -1.860436,-9.93168 0.930218,-11.66396 z"
       style="fill:#808080;stroke:#000000;stroke-width:0.29315707px;stroke-linecap:butt;stroke-linejoin:miter;stroke-opacity:1" />
    <path
       style="fill:#999999;stroke:#000000;stroke-width:0.26458332px;stroke-linecap:butt;stroke-linejoin:miter;stroke-opacity:1"
       d="m -119.80622,146.76977 c 0,0 5.70621,1.6838 3.92887,10.85114 0,0 -9.88048,11.88023 -13.37685,10.7576 -3.00858,-0.96601 -4.75217,-0.63542 -4.80459,-6.08005 -0.0486,-5.04196 3.27839,-13.18993 14.25257,-15.52869 z"
       id="path7407"
       inkscape:connector-curvature="0"
       sodipodi:nodetypes="ccssc" />
    <path
       style="fill:#808080;stroke:#000000;stroke-width:0.26458332px;stroke-linecap:butt;stroke-linejoin:miter;stroke-opacity:1"
       d="m -135.37936,166.51555 c 0,0 -1.14639,-11.44085 13.42036,-2.01668 0,0 3.84323,7.94276 3.43328,15.80872 -0.36738,7.04853 -5.62387,4.96826 -6.94823,4.50468 -1.39603,-0.48865 -7.82714,-4.62536 -9.90541,-18.29672 z"
       id="path7409"
       inkscape:connector-curvature="0"
       sodipodi:nodetypes="ccssc" />
    <path
       style="fill:none;stroke:#000000;stroke-width:0.26458332px;stroke-linecap:butt;stroke-linejoin:miter;stroke-opacity:1"
       d="m -28.971883,189.97605 -12.567708,-11.2448 c 0,0 -3.485667,6.89453 -9.041917,-2.23359"
       id="path7418"
       inkscape:connector-curvature="0"
       sodipodi:nodetypes="ccc" />
    <g
       id="g7430"
       transform="translate(-0.1984375,-0.19843749)">
      <path
         sodipodi:nodetypes="ccccc"
         inkscape:connector-curvature="0"
         id="path7426"
         d="m -30.162508,189.05 c 0,0 -7.524575,-2.80082 -8.979783,9.6346 l -11.26084,-21.14397 8.598958,0.79375 z"
         style="fill:#4d4d4d;stroke:none;stroke-width:0.26458332px;stroke-linecap:butt;stroke-linejoin:miter;stroke-opacity:1" />
      <path
         sodipodi:nodetypes="csccscc"
         inkscape:connector-curvature="0"
         id="path7416"
         d="m -50.536639,176.49349 c 0,0 -3.695001,0.4911 -4.817533,3.48452 -1.122532,2.99342 0.451673,5.2427 1.870888,6.5481 l 14.405827,11.97368 c 0,0 -0.187089,-9.72861 6.922281,-9.72861 7.109369,0 2.993418,9.54152 1.683798,10.10279 0,0 -3.22728,3.36759 -8.652852,-0.37418"
         style="fill:#4d4d4d;stroke:#000000;stroke-width:0.26458332px;stroke-linecap:butt;stroke-linejoin:miter;stroke-opacity:1" />
    </g>
    <g
       transform="rotate(-15,-23.578444,170.55946)"
       id="g7473">
      <g
         id="g7561"
         transform="matrix(-0.8660254,-0.5,-0.5,0.8660254,-90.441529,-24.233734)">
        <path
           style="fill:#4d4d4d;stroke:#000000;stroke-width:0.26458332px;stroke-linecap:butt;stroke-linejoin:miter;stroke-opacity:1"
           d="m -99.274117,235.43364 -5.640843,-0.41579 -2.77946,1.17266 4.91935,5.15297 1.51997,-2.60581 2.505551,-0.15039 z"
           id="path7542"
           inkscape:connector-curvature="0" />
        <path
           style="fill:#666666;stroke:#000000;stroke-width:0.26458332px;stroke-linecap:butt;stroke-linejoin:miter;stroke-opacity:1"
           d="m -80.608007,260.84201 -5.535005,-10.52235 -5.341861,-1.02048 -3.171991,1.61532 6.260516,9.63024 -0.749752,3.96218 2.39944,3.0889 6.140453,-1.13805 z"
           id="path7544"
           inkscape:connector-curvature="0"
           sodipodi:nodetypes="ccccccccc" />
        <path
           sodipodi:nodetypes="ccccccccc"
           inkscape:connector-curvature="0"
           id="path7546"
           d="m -65.823481,257.13219 -7.188996,-7.36985 -5.841366,-0.36926 -1.939365,2.9849 7.266076,7.48548 -0.229293,4.01969 3.595338,2.51016 3.77475,-3.71917 z"
           style="fill:#666666;stroke:#000000;stroke-width:0.26458332px;stroke-linecap:butt;stroke-linejoin:miter;stroke-opacity:1" />
        <path
           style="fill:#4d4d4d;stroke:#000000;stroke-width:0.26458332px;stroke-linecap:butt;stroke-linejoin:miter;stroke-opacity:1"
           d="m -78.853851,249.39308 9.060989,9.18026 -0.368233,7.81997 -3.595338,-2.51016 0.229293,-4.01969 -7.266074,-7.48548 z"
           id="path7548"
           inkscape:connector-curvature="0" />
        <path
           style="fill:#4d4d4d;stroke:#000000;stroke-width:0.26458332px;stroke-linecap:butt;stroke-linejoin:miter;stroke-opacity:1"
           d="m -86.74666,267.59582 1.485606,-6.4849 -6.22382,-11.81174 -3.17199,1.61532 6.260516,9.63024 -0.749752,3.96218 z"
           id="path7551"
           inkscape:connector-curvature="0"
           sodipodi:nodetypes="ccccccc" />
        <path
           style="fill:#1a1a1a;stroke:#000000;stroke-width:0.26458332px;stroke-linecap:butt;stroke-linejoin:miter;stroke-opacity:1"
           d="m -102.77508,241.34348 5.799345,-0.17235 -1.773822,-2.58385 -2.505553,0.15039 z"
           id="path7553"
           inkscape:connector-curvature="0"
           sodipodi:nodetypes="ccccc" />
        <path
           style="fill:none;stroke:#000000;stroke-width:0.26458332px;stroke-linecap:butt;stroke-linejoin:miter;stroke-opacity:1"
           d="m -85.261054,261.11092 4.653047,-0.26891 0.0018,5.61576 -6.140453,1.13805 z"
           id="path7555"
           inkscape:connector-curvature="0"
           sodipodi:nodetypes="ccccc" />
        <path
           style="fill:none;stroke:#000000;stroke-width:0.26458332px;stroke-linecap:butt;stroke-linejoin:miter;stroke-opacity:1"
           d="m -69.79287,258.57334 3.969381,-1.44115 -0.562855,5.54195 -3.774759,3.71917 z"
           id="path7557"
           inkscape:connector-curvature="0" />
        <path
           style="fill:#666666;stroke:#000000;stroke-width:0.26458332px;stroke-linecap:butt;stroke-linejoin:miter;stroke-opacity:1"
           d="m -93.114438,250.19377 -7.837642,-11.59083 1.976613,-0.14827 0.08862,1.47641 10.666396,9.34661 8.774579,-0.94156 3.156006,1.23302 -2.560691,-0.20191 -1.140932,1.72802 -5.313174,-2.86072 -4.054003,0.0611 1.444731,1.64521 -3.57234,-0.76352 z"
           id="path7559"
           inkscape:connector-curvature="0"
           sodipodi:nodetypes="cccccccccccccc" />
      </g>
      <g
         id="g7477"
         transform="rotate(15,-39.190927,182.59499)">
        <path
           style="fill:#666666;stroke:#000000;stroke-width:0.26458332px;stroke-linecap:butt;stroke-linejoin:miter;stroke-opacity:1"
           d="m -34.528133,188.91771 11.244792,9.525 c 0,0 -4.365625,-2.11666 -3.96875,2.91042 l -11.463979,-9.78294 c 0,0 1.377711,-4.83611 4.187937,-2.65248 z"
           id="path7469"
           inkscape:connector-curvature="0"
           sodipodi:nodetypes="ccccc" />
        <path
           style="fill:#1a1a1a;stroke:#000000;stroke-width:0.26458332px;stroke-linecap:butt;stroke-linejoin:miter;stroke-opacity:1"
           d="m -23.415633,198.31042 c 0,0 1.008724,5.0767 -3.836458,3.04271 -0.330731,-5.52317 3.836458,-3.04271 3.836458,-3.04271 z"
           id="path7471"
           inkscape:connector-curvature="0"
           sodipodi:nodetypes="ccc" />
      </g>
      <path
         style="fill:#4d4d4d;stroke:#000000;stroke-width:0.26458332px;stroke-linecap:butt;stroke-linejoin:miter;stroke-opacity:1"
         d="m -26.630544,162.99055 -2.993422,4.30304 -13.096205,2.43215 c 0,0 0.748352,-4.49013 0.187086,-6.36102 l 9.915703,-2.24506 z"
         id="path7485"
         inkscape:connector-curvature="0" />
      <path
         style="fill:#666666;stroke:#000000;stroke-width:0.26458332px;stroke-linecap:butt;stroke-linejoin:miter;stroke-opacity:1"
         d="m -34.862448,165.04852 c 0,0 12.337631,7.25063 5.238483,14.96709 -4.303041,4.67722 -7.86684,1.96426 -7.86684,1.96426 l -3.343549,-5.30566 c 0,0 3.165572,3.90267 7.094434,0.53508 3.554688,-4.8643 -3.554685,-6.92228 -5.799749,-11.41241 z"
         id="path7479"
         inkscape:connector-curvature="0"
         sodipodi:nodetypes="csccccc" />
      <path
         style="fill:#666666;stroke:#000000;stroke-width:0.26458332px;stroke-linecap:butt;stroke-linejoin:miter;stroke-opacity:1"
         d="m -46.08777,155.13283 9.728613,-3.55469 3.741772,9.54152 -11.786587,2.61924 z"
         id="path7481"
         inkscape:connector-curvature="0" />
      <path
         style="fill:#808080;stroke:#000000;stroke-width:0.26458332px;stroke-linecap:butt;stroke-linejoin:miter;stroke-opacity:1"
         d="m -36.359154,151.57814 7.109364,3.92886 2.619243,7.48355 -5.986835,-1.87089 z"
         id="path7483"
         inkscape:connector-curvature="0" />
      <g
         id="g7519">
        <path
           inkscape:connector-curvature="0"
           id="path7492"
           d="m -99.274117,235.43364 -5.640843,-0.41579 -2.77946,1.17266 4.91935,5.15297 1.51997,-2.60581 2.505551,-0.15039 z"
           style="fill:#4d4d4d;stroke:#000000;stroke-width:0.26458332px;stroke-linecap:butt;stroke-linejoin:miter;stroke-opacity:1" />
        <path
           sodipodi:nodetypes="ccccccccc"
           inkscape:connector-curvature="0"
           id="path7494"
           d="m -84.069806,262.51663 -1.979662,-12.03495 -5.435405,-1.1825 -3.171991,1.61532 0.49189,9.18021 -2.002527,4.03737 1.726281,3.04549 8.303606,-0.0106 z"
           style="fill:#666666;stroke:#000000;stroke-width:0.26458332px;stroke-linecap:butt;stroke-linejoin:miter;stroke-opacity:1" />
        <path
           style="fill:#666666;stroke:#000000;stroke-width:0.26458332px;stroke-linecap:butt;stroke-linejoin:miter;stroke-opacity:1"
           d="m -65.823481,257.13219 -7.188996,-7.36985 -5.841366,-0.36926 -1.939365,2.9849 7.266076,7.48548 -0.229293,4.01969 3.595338,2.51016 3.77475,-3.71917 z"
           id="path7496"
           inkscape:connector-curvature="0"
           sodipodi:nodetypes="ccccccccc" />
        <path
           inkscape:connector-curvature="0"
           id="path7498"
           d="m -78.853851,249.39308 9.060989,9.18026 -0.368233,7.81997 -3.595338,-2.51016 0.229293,-4.01969 -7.266074,-7.48548 z"
           style="fill:#4d4d4d;stroke:#000000;stroke-width:0.26458332px;stroke-linecap:butt;stroke-linejoin:miter;stroke-opacity:1" />
        <path
           inkscape:connector-curvature="0"
           id="path7500"
           d="m -94.441228,267.17757 2.965258,-6.47298 -0.0089,-11.40541 -3.171991,1.61532 0.491889,9.18021 -2.002527,4.03737 z"
           style="fill:#4d4d4d;stroke:#000000;stroke-width:0.26458332px;stroke-linecap:butt;stroke-linejoin:miter;stroke-opacity:1" />
        <path
           sodipodi:nodetypes="ccccc"
           inkscape:connector-curvature="0"
           id="path7502"
           d="m -102.77508,241.34348 5.799345,-0.17235 -1.773822,-2.58385 -2.505553,0.15039 z"
           style="fill:#1a1a1a;stroke:#000000;stroke-width:0.26458332px;stroke-linecap:butt;stroke-linejoin:miter;stroke-opacity:1" />
        <path
           inkscape:connector-curvature="0"
           id="path7504"
           d="m -91.475977,260.70459 7.406165,1.81204 -2.067802,4.65034 -8.303622,0.0106 z"
           style="fill:none;stroke:#000000;stroke-width:0.26458332px;stroke-linecap:butt;stroke-linejoin:miter;stroke-opacity:1" />
        <path
           inkscape:connector-curvature="0"
           id="path7506"
           d="m -69.79287,258.57334 3.969381,-1.44115 -0.562855,5.54195 -3.774759,3.71917 z"
           style="fill:none;stroke:#000000;stroke-width:0.26458332px;stroke-linecap:butt;stroke-linejoin:miter;stroke-opacity:1" />
        <path
           sodipodi:nodetypes="cccccccccccccc"
           inkscape:connector-curvature="0"
           id="path7508"
           d="m -93.114438,250.19377 -7.837642,-11.59083 1.976613,-0.14827 0.08862,1.47641 10.666396,9.34661 8.774579,-0.94156 3.156006,1.23302 -2.560691,-0.20191 -1.140932,1.72802 -5.313174,-2.86072 -4.054003,0.0611 1.444731,1.64521 -3.57234,-0.76352 z"
           style="fill:#666666;stroke:#000000;stroke-width:0.26458332px;stroke-linecap:butt;stroke-linejoin:miter;stroke-opacity:1" />
      </g>
    </g>
    <g
       id="g7490"
       transform="matrix(-1,0,0,1,-182.8115,0)">
      <g
         id="g7486"
         transform="matrix(1.1306721,0,0,1.1306721,3.0668389,-41.306113)">
        <path
           sodipodi:nodetypes="cccccccc"
           inkscape:connector-curvature="0"
           id="path7480"
           d="m -78.740253,238.53677 6.735194,-4.49013 7.483546,3.55468 6.735191,-2.24506 c 0,0 -2.993419,25.63114 5.238482,30.86963 l -8.231899,3.18051 -11.476511,-5.72927 z"
           style="fill:#808080;stroke:#000000;stroke-width:0.26458332px;stroke-linecap:butt;stroke-linejoin:miter;stroke-opacity:1" />
        <path
           inkscape:connector-curvature="0"
           id="path7482"
           d="m -57.786322,235.35626 -7.857723,-4.11595 -6.361014,2.80633 7.483546,3.55468 z"
           style="fill:#4d4d4d;stroke:#000000;stroke-width:0.26458332px;stroke-linecap:butt;stroke-linejoin:miter;stroke-opacity:1" />
        <path
           inkscape:connector-curvature="0"
           id="path7484"
           d="m -64.521513,237.60132 c 0,0 -2.533796,24.05522 3.741772,31.80508 l 8.231901,-3.18051 c 0,0 -7.330009,-2.81962 -5.238482,-30.86963 z"
           style="fill:#999999;stroke:#000000;stroke-width:0.26458332px;stroke-linecap:butt;stroke-linejoin:miter;stroke-opacity:1" />
      </g>
      <path
         style="fill:#1a1a1a;stroke:#000000;stroke-width:0.26458332px;stroke-linecap:butt;stroke-linejoin:miter;stroke-opacity:1"
         d="m -66.145838,217.75729 -1.984375,8.99584 -1.852083,0.52916 -5.291667,-2.64583 v -5.95313 z"
         id="path7488"
         inkscape:connector-curvature="0" />
    </g>
    <g
       id="g7560"
       transform="matrix(-1,0,0,1,-181.30391,-0.52916663)">
      <path
         style="fill:#4d4d4d;stroke:#000000;stroke-width:0.26458332px;stroke-linecap:butt;stroke-linejoin:miter;stroke-opacity:1"
         d="m -89.778484,196.6289 13.133493,-7.7112 11.000946,0.97601 -14.21874,7.10937 z"
         id="path7550"
         inkscape:connector-curvature="0" />
      <path
         style="fill:#666666;stroke:#000000;stroke-width:0.26458332px;stroke-linecap:butt;stroke-linejoin:miter;stroke-opacity:1"
         d="m -76.495189,225.44056 -10.289876,-6.17393 -2.993419,-22.63773 9.915699,0.37418 z"
         id="path7552"
         inkscape:connector-curvature="0" />
      <path
         style="fill:none;stroke:#000000;stroke-width:0.26458332px;stroke-linecap:butt;stroke-linejoin:miter;stroke-opacity:1"
         d="m -75.372658,194.75801 -1.272331,-5.84031"
         id="path7554"
         inkscape:connector-curvature="0" />
      <path
         style="fill:#999999;stroke:#000000;stroke-width:0.26458332px;stroke-linecap:butt;stroke-linejoin:miter;stroke-opacity:1"
         d="m -79.862785,197.00308 14.21874,-7.10937 6.173925,26.94077 -17.025069,8.60608 z"
         id="path7556"
         inkscape:connector-curvature="0" />
      <path
         style="fill:#1a1a1a;stroke:#000000;stroke-width:0.26458332px;stroke-linecap:butt;stroke-linejoin:miter;stroke-opacity:1"
         d="m -73.519656,190.86013 1.514595,2.21409 -7.857724,3.92886 -0.950341,-0.0359 0.18624,-1.90572 z"
         id="path7558"
         inkscape:connector-curvature="0"
         sodipodi:nodetypes="cccccc" />
    </g>
    <path
       sodipodi:nodetypes="ccssc"
       inkscape:connector-curvature="0"
       id="path7420"
       d="m -51.362676,147.62896 c 0,0 -3.638027,-6.28384 -10.186462,-1.45521 0,0 -6.176539,11.94756 -0.264582,17.85938 2.234386,2.23434 7.453602,3.71345 10.342435,-0.90189 2.541237,-4.06001 4.098105,-6.0886 0.108609,-15.50228 z"
       style="fill:#999999;stroke:#000000;stroke-width:0.26458332px;stroke-linecap:butt;stroke-linejoin:miter;stroke-opacity:1" />
    <path
       sodipodi:nodetypes="ccssc"
       inkscape:connector-curvature="0"
       id="path7422"
       d="m -52.278923,159.39287 c 0,0 -11.980704,-2.1305 -8.456669,10.61404 0,0 4.957014,7.29972 11.974113,10.87766 6.287893,3.2061 7.11457,-2.38627 7.375277,-3.765 0.274832,-1.45332 -1.67962,-13.05992 -10.892721,-17.7267 z"
       style="fill:#808080;stroke:#000000;stroke-width:0.26458332px;stroke-linecap:butt;stroke-linejoin:miter;stroke-opacity:1" />
    <g
       id="g7467"
       transform="translate(-0.52916663,6.3500003)">
      <path
         style="fill:#666666;stroke:#000000;stroke-width:0.26458332px;stroke-linecap:butt;stroke-linejoin:miter;stroke-opacity:1"
         d="m -34.528133,188.91771 11.244792,9.525 c 0,0 -4.365625,-2.11666 -3.96875,2.91042 l -11.463979,-9.78294 c 0,0 1.377711,-4.83611 4.187937,-2.65248 z"
         id="path7463"
         inkscape:connector-curvature="0"
         sodipodi:nodetypes="ccccc" />
      <path
         style="fill:#1a1a1a;stroke:#000000;stroke-width:0.26458332px;stroke-linecap:butt;stroke-linejoin:miter;stroke-opacity:1"
         d="m -23.415633,198.31042 c 0,0 -0.264583,5.15938 -3.836458,3.04271 -0.264585,-5.02708 3.836458,-3.04271 3.836458,-3.04271 z"
         id="path7465"
         inkscape:connector-curvature="0"
         sodipodi:nodetypes="ccc" />
    </g>
    <g
       id="g7461"
       transform="translate(3.7041668,-0.52916667)">
      <path
         style="fill:#666666;stroke:#000000;stroke-width:0.26458332px;stroke-linecap:butt;stroke-linejoin:miter;stroke-opacity:1"
         d="m -34.528133,188.91771 11.244792,9.525 c 0,0 -4.365625,-2.11666 -3.96875,2.91042 l -11.651067,-11.37319 c 0,0 1.751888,-1.09434 4.375025,-1.06223 z"
         id="path7457"
         inkscape:connector-curvature="0"
         sodipodi:nodetypes="ccccc" />
      <path
         style="fill:#1a1a1a;stroke:#000000;stroke-width:0.26458332px;stroke-linecap:butt;stroke-linejoin:miter;stroke-opacity:1"
         d="m -23.415633,198.31042 c 0,0 -0.264583,5.15938 -3.836458,3.04271 -0.264585,-5.02708 3.836458,-3.04271 3.836458,-3.04271 z"
         id="path7459"
         inkscape:connector-curvature="0"
         sodipodi:nodetypes="ccc" />
    </g>
    <g
       id="g7449">
      <path
         sodipodi:nodetypes="ccccc"
         inkscape:connector-curvature="0"
         id="path7437"
         d="m -34.528133,188.91771 11.244792,9.525 c 0,0 -4.365625,-2.11666 -3.96875,2.91042 L -37.967715,192.225 c 0,0 1.190622,-2.77813 3.439582,-3.30729 z"
         style="fill:#666666;stroke:#000000;stroke-width:0.26458332px;stroke-linecap:butt;stroke-linejoin:miter;stroke-opacity:1" />
      <path
         sodipodi:nodetypes="ccc"
         inkscape:connector-curvature="0"
         id="path7439"
         d="m -23.415633,198.31042 c 0,0 -0.264583,5.15938 -3.836458,3.04271 -0.264585,-5.02708 3.836458,-3.04271 3.836458,-3.04271 z"
         style="fill:#1a1a1a;stroke:#000000;stroke-width:0.26458332px;stroke-linecap:butt;stroke-linejoin:miter;stroke-opacity:1" />
    </g>
    <path
       style="fill:#1a1a1a;stroke:#000000;stroke-width:0.26458332px;stroke-linecap:butt;stroke-linejoin:miter;stroke-opacity:1"
       d="m -45.508341,176.61459 2.38125,-0.13229 0.132292,3.96875 -2.148078,0.77036 z"
       id="path7443"
       inkscape:connector-curvature="0"
       sodipodi:nodetypes="ccccc" />
    <path
       style="fill:#808080;stroke:#000000;stroke-width:0.26458332px;stroke-linecap:butt;stroke-linejoin:miter;stroke-opacity:1"
       d="m -40.737869,183.57947 0.724966,-0.1637 c 0,0 -0.07016,-5.42557 -5.425569,-6.17393 l 0.561267,3.8587 z"
       id="path7445"
       inkscape:connector-curvature="0" />
    <path
       style="fill:#333333;stroke:#000000;stroke-width:0.26458332px;stroke-linecap:butt;stroke-linejoin:miter;stroke-opacity:1"
       d="m -45.373069,177.70364 c 0,0 4.627228,0.89532 4.627228,5.79011 l -1.984374,-1.05833 c 0,0 -2.173818,-0.33122 -2.295217,-1.91931 -0.05094,-0.66633 -0.281111,-1.79185 -0.347637,-2.81247 z"
       id="path7441"
       inkscape:connector-curvature="0"
       sodipodi:nodetypes="cccsc" />
    <g
       id="g7455"
       transform="translate(-2.6458332,3.7041668)">
      <path
         style="fill:#666666;stroke:#000000;stroke-width:0.26458332px;stroke-linecap:butt;stroke-linejoin:miter;stroke-opacity:1"
         d="m -34.995855,188.44999 11.712514,9.99272 c 0,0 -4.365625,-2.11666 -3.96875,2.91042 l -9.218915,-8.0056 c 0,0 0.535812,-3.62003 1.475151,-4.89754 z"
         id="path7451"
         inkscape:connector-curvature="0"
         sodipodi:nodetypes="ccccc" />
      <path
         style="fill:#1a1a1a;stroke:#000000;stroke-width:0.26458332px;stroke-linecap:butt;stroke-linejoin:miter;stroke-opacity:1"
         d="m -23.415633,198.31042 c 0,0 -0.264583,5.15938 -3.836458,3.04271 -0.264585,-5.02708 3.836458,-3.04271 3.836458,-3.04271 z"
         id="path7453"
         inkscape:connector-curvature="0"
         sodipodi:nodetypes="ccc" />
    </g>
    <path
       style="fill:#b3b3b3;stroke:#000000;stroke-width:0.26458332px;stroke-linecap:butt;stroke-linejoin:miter;stroke-opacity:1"
       d="m -114.03542,182.43541 13.09687,-3.57188 -1.98437,10.05417 z"
       id="path7501"
       inkscape:connector-curvature="0" />
    <path
       style="fill:#cccccc;stroke:#000000;stroke-width:0.26458332px;stroke-linecap:butt;stroke-linejoin:miter;stroke-opacity:1"
       d="m -100.93855,178.86353 h 22.871474 l 1.422087,10.05417 h -26.277931 z"
       id="path7503"
       inkscape:connector-curvature="0" />
    <path
       style="fill:#b3b3b3;stroke:#000000;stroke-width:0.26458332px;stroke-linecap:butt;stroke-linejoin:miter;stroke-opacity:1"
       d="m -102.92292,193.15104 v -4.23334 l -11.1125,-6.48229 v 4.10105 z"
       id="path7511"
       inkscape:connector-curvature="0" />
    <path
       style="fill:#b3b3b3;stroke:#000000;stroke-width:0.26458332px;stroke-linecap:butt;stroke-linejoin:miter;stroke-opacity:1"
       d="m -78.067076,178.86353 12.534587,3.57188 -11.1125,6.48229 z"
       id="path7505"
       inkscape:connector-curvature="0" />
    <g
       id="g7478">
      <g
         transform="matrix(1.1306721,0,0,1.1306721,3.0668389,-41.306113)"
         id="g7466">
        <path
           style="fill:#808080;stroke:#000000;stroke-width:0.26458332px;stroke-linecap:butt;stroke-linejoin:miter;stroke-opacity:1"
           d="m -78.740253,238.53677 6.735194,-4.49013 7.483546,3.55468 6.735191,-2.24506 c 0,0 -2.993419,25.63114 5.238482,30.86963 l -8.231899,3.18051 -11.476511,-5.72927 z"
           id="path7562"
           inkscape:connector-curvature="0"
           sodipodi:nodetypes="cccccccc" />
        <path
           style="fill:#4d4d4d;stroke:#000000;stroke-width:0.26458332px;stroke-linecap:butt;stroke-linejoin:miter;stroke-opacity:1"
           d="m -57.786322,235.35626 -7.857723,-4.11595 -6.361014,2.80633 7.483546,3.55468 z"
           id="path7564"
           inkscape:connector-curvature="0" />
        <path
           style="fill:#999999;stroke:#000000;stroke-width:0.26458332px;stroke-linecap:butt;stroke-linejoin:miter;stroke-opacity:1"
           d="m -64.521513,237.60132 c 0,0 -2.533796,24.05522 3.741772,31.80508 l 8.231901,-3.18051 c 0,0 -7.330009,-2.81962 -5.238482,-30.86963 z"
           id="path7568"
           inkscape:connector-curvature="0" />
      </g>
      <path
         inkscape:connector-curvature="0"
         id="path7470"
         d="m -66.145838,217.75729 -1.984375,8.99584 -1.852083,0.52916 -5.291667,-2.64583 v -5.95313 z"
         style="fill:#1a1a1a;stroke:#000000;stroke-width:0.26458332px;stroke-linecap:butt;stroke-linejoin:miter;stroke-opacity:1" />
    </g>
    <g
       id="g7548">
      <path
         inkscape:connector-curvature="0"
         id="path7529"
         d="m -89.778484,196.6289 13.133493,-7.7112 11.000946,0.97601 -14.21874,7.10937 z"
         style="fill:#4d4d4d;stroke:#000000;stroke-width:0.26458332px;stroke-linecap:butt;stroke-linejoin:miter;stroke-opacity:1" />
      <path
         inkscape:connector-curvature="0"
         id="path7527"
         d="m -76.495189,225.44056 -10.289876,-6.17393 -2.993419,-22.63773 9.915699,0.37418 z"
         style="fill:#666666;stroke:#000000;stroke-width:0.26458332px;stroke-linecap:butt;stroke-linejoin:miter;stroke-opacity:1" />
      <path
         inkscape:connector-curvature="0"
         id="path7531"
         d="m -75.372658,194.75801 -1.272331,-5.84031"
         style="fill:none;stroke:#000000;stroke-width:0.26458332px;stroke-linecap:butt;stroke-linejoin:miter;stroke-opacity:1" />
      <path
         inkscape:connector-curvature="0"
         id="path7525"
         d="m -79.862785,197.00308 14.21874,-7.10937 6.173925,26.94077 -17.025069,8.60608 z"
         style="fill:#999999;stroke:#000000;stroke-width:0.26458332px;stroke-linecap:butt;stroke-linejoin:miter;stroke-opacity:1" />
      <path
         sodipodi:nodetypes="cccccc"
         inkscape:connector-curvature="0"
         id="path7533"
         d="m -73.519656,190.86013 1.514595,2.21409 -7.857724,3.92886 -0.950341,-0.0359 0.18624,-1.90572 z"
         style="fill:#1a1a1a;stroke:#000000;stroke-width:0.26458332px;stroke-linecap:butt;stroke-linejoin:miter;stroke-opacity:1" />
    </g>
    <path
       style="fill:#cccccc;stroke:#000000;stroke-width:0.26458332px;stroke-linecap:butt;stroke-linejoin:miter;stroke-opacity:1"
       d="m -102.92292,188.9177 v 4.23334 l 8.855146,5.11253 v 3.22185 h 7.813603 v -3.175 l 9.492393,-5.48044 v -3.91228 z"
       id="path7507"
       inkscape:connector-curvature="0" />
    <path
       style="fill:#b3b3b3;stroke:#000000;stroke-width:0.26458332px;stroke-linecap:butt;stroke-linejoin:miter;stroke-opacity:1"
       d="m -65.532489,182.43541 v 3.57188 l -11.229289,6.82269 v -3.91228 z"
       id="path7509"
       inkscape:connector-curvature="0"
       sodipodi:nodetypes="ccccc" />
    <g
       id="g7571">
      <path
         inkscape:connector-curvature="0"
         id="path7411"
         d="m -125.8866,184.65523 c 0,0 2.05798,-3.92886 7.48355,-2.05798 5.42557,1.87089 0,5.23849 3.92886,7.85773 3.92886,2.61924 -11.03823,14.03165 -11.41241,-5.79975 z"
         style="fill:#999999;stroke:#000000;stroke-width:0.26458332px;stroke-linecap:butt;stroke-linejoin:miter;stroke-opacity:1" />
      <path
         inkscape:connector-curvature="0"
         id="path7413"
         d="m -115.59672,185.21649 c 0,0 3.55468,2.24507 1.49671,5.61266 0,0 -3.18051,-1.30963 -1.49671,-5.61266 z"
         style="fill:#666666;stroke:#000000;stroke-width:0.26458332px;stroke-linecap:butt;stroke-linejoin:miter;stroke-opacity:1" />
      <path
         style="fill:#666666;stroke:#000000;stroke-width:0.26458332px;stroke-linecap:butt;stroke-linejoin:miter;stroke-opacity:1"
         d="m -115.59672,185.21649 c 0,0 3.55468,2.24507 1.49671,5.61266 0,0 -3.18051,-1.30963 -1.49671,-5.61266 z"
         id="path7415"
         inkscape:connector-curvature="0" />
      <path
         inkscape:connector-curvature="0"
         id="path7419"
         d="m -114.7143,186.39412 c 0,0 -0.68647,2.36176 0.54919,3.75886 l 3.98156,-0.49896 c 0,0 0.87869,-1.82953 -0.16476,-3.52601 z"
         style="fill:#999999;stroke:#000000;stroke-width:0.24178071px;stroke-linecap:butt;stroke-linejoin:miter;stroke-opacity:1" />
      <path
         inkscape:connector-curvature="0"
         id="path7421"
         d="m -110.3974,186.13958 c 0,0 2.51354,-0.26458 3.70416,3.63802 0,0 -0.42994,5.22552 -3.5388,-0.13229 0,0 1.15756,-1.88516 -0.16536,-3.50573 z"
         style="fill:#999999;stroke:#000000;stroke-width:0.26458332px;stroke-linecap:butt;stroke-linejoin:miter;stroke-opacity:1" />
      <path
         inkscape:connector-curvature="0"
         id="path7425"
         d="m -114.94191,203.177 5.70621,-5.33202"
         style="fill:none;stroke:#000000;stroke-width:0.26458332px;stroke-linecap:butt;stroke-linejoin:miter;stroke-opacity:1" />
      <path
         sodipodi:nodetypes="ccccc"
         inkscape:connector-curvature="0"
         id="path7429"
         d="m -109.37602,197.79821 0.14032,-1.96443 -4.44336,-4.77077 -1.12254,-0.23386 z"
         style="fill:#808080;stroke:#000000;stroke-width:0.26458332px;stroke-linecap:butt;stroke-linejoin:miter;stroke-opacity:1" />
      <path
         inkscape:connector-curvature="0"
         id="path7431"
         d="m -109.14216,196.16118 0.37418,0.0935 0.23386,1.54349 -0.74836,0.0468 z"
         style="fill:#333333;stroke:#000000;stroke-width:0.26458332px;stroke-linecap:butt;stroke-linejoin:miter;stroke-opacity:1" />
    </g>
    <path
       style="fill:#666666;stroke:#000000;stroke-width:0.26458332px;stroke-linecap:butt;stroke-linejoin:miter;stroke-opacity:1"
       d="m -122.13829,195.49922 c 0,0 2.0836,-4.13411 7.34219,-4.82865 l 5.52318,7.2099 5.09323,-0.59531 -6.19988,5.39243 -4.5787,0.51201 z"
       id="path7423"
       inkscape:connector-curvature="0"
       sodipodi:nodetypes="ccccccc" />
    <path
       style="fill:#999999;stroke:#000000;stroke-width:0.26458332px;stroke-linecap:butt;stroke-linejoin:miter;stroke-opacity:1"
       d="m -104.07423,197.02222 -1.51325,-1.37553 -3.08696,0.37417 -0.56121,1.82412 z"
       id="path7427"
       inkscape:connector-curvature="0"
       sodipodi:nodetypes="ccccc" />
  </g>
</svg>
