<?xml version="1.0" encoding="UTF-8" standalone="no"?>
<!-- Created with Inkscape (http://www.inkscape.org/) -->

<svg
   xmlns:dc="http://purl.org/dc/elements/1.1/"
   xmlns:cc="http://creativecommons.org/ns#"
   xmlns:rdf="http://www.w3.org/1999/02/22-rdf-syntax-ns#"
   xmlns:svg="http://www.w3.org/2000/svg"
   xmlns="http://www.w3.org/2000/svg"
   xmlns:sodipodi="http://sodipodi.sourceforge.net/DTD/sodipodi-0.dtd"
   xmlns:inkscape="http://www.inkscape.org/namespaces/inkscape"
   height="208.96883mm"
   width="210.25401mm"
   viewBox="0 0 744.99453 740.44072"
   id="svg3278"
   version="1.1"
   inkscape:version="0.91 r13725"
   sodipodi:docname="Real Estate Photography V2.svg">
  <title
     id="title3248">Coach Photography</title>
  <defs
     id="defs3284" />
  <sodipodi:namedview
     pagecolor="#ffffff"
     bordercolor="#666666"
     borderopacity="1"
     objecttolerance="10"
     gridtolerance="10"
     guidetolerance="10"
     inkscape:pageopacity="0"
     inkscape:pageshadow="2"
     inkscape:window-width="1366"
     inkscape:window-height="688"
     id="namedview3282"
     showgrid="false"
     showguides="false"
     inkscape:zoom="0.44851478"
     inkscape:cx="10.822667"
     inkscape:cy="416.45557"
     inkscape:window-x="0"
     inkscape:window-y="0"
     inkscape:window-maximized="1"
     inkscape:current-layer="svg3278"
     fit-margin-top="0"
     fit-margin-left="0"
     fit-margin-right="0"
     fit-margin-bottom="0"
     inkscape:showpageshadow="false"
     inkscape:object-paths="true"
     inkscape:snap-intersection-paths="true"
     inkscape:object-nodes="true"
     inkscape:snap-smooth-nodes="true"
     inkscape:snap-midpoints="true">
    <inkscape:grid
       type="xygrid"
       id="grid3336"
       originx="1.0469317"
       originy="-312.15111" />
  </sodipodi:namedview>
  <metadata
     id="metadata3280">
    <rdf:RDF>
      <cc:Work
         rdf:about="">
        <dc:format>image/svg+xml</dc:format>
        <dc:type
           rdf:resource="http://purl.org/dc/dcmitype/StillImage" />
        <dc:title>Coach Photography</dc:title>
        <dc:date>1-19-17</dc:date>
        <dc:creator>
          <cc:Agent>
            <dc:title>Caden Mitchell</dc:title>
          </cc:Agent>
        </dc:creator>
        <dc:language>English</dc:language>
        <dc:subject>
          <rdf:Bag>
            <rdf:li>Coach Photography Logo</rdf:li>
          </rdf:Bag>
        </dc:subject>
        <dc:description>This is a logo for Coach Photography created by Caden Mitchell.</dc:description>
        <dc:contributor>
          <cc:Agent>
            <dc:title>Caden Mitchell</dc:title>
          </cc:Agent>
        </dc:contributor>
      </cc:Work>
    </rdf:RDF>
  </metadata>
  <path
     style="fill:#00baaa;fill-opacity:1;fill-rule:evenodd;stroke:#2d3f50;stroke-width:12.70386505;stroke-linecap:butt;stroke-linejoin:miter;stroke-miterlimit:4;stroke-dasharray:none;stroke-opacity:1"
     d="m 6.8931078,463.21122 35.1711882,22.93334 147.363744,1.80779 36.61431,-22.93334 475.98595,0 36.6143,-45.86672 0,-321.066943 -36.6143,-45.866707 -475.98595,0 -36.61431,-22.933355 -36.6143,0 -18.30715,-22.9333525 -36.614306,0 -18.307151,22.9333525 -36.614304,0 L 6.3565252,52.21864 Z"
     id="path3338"
     inkscape:connector-curvature="0"
     sodipodi:nodetypes="ccccccccccccccccc" />
  <g
     id="g7299"
     transform="matrix(1.2571714,0,0,1.2571714,-97.254523,-0.11809707)">
    <path
       inkscape:connector-curvature="0"
       id="path3422"
       d="M 604.68503,206.3963 A 154.2681,154.2681 0 0 1 450.41693,360.6644 154.2681,154.2681 0 0 1 296.14883,206.3963 154.2681,154.2681 0 0 1 450.41693,52.128204 154.2681,154.2681 0 0 1 604.68503,206.3963 Z"
       style="opacity:1;fill:#ebf0f1;fill-opacity:1;fill-rule:nonzero;stroke:#2d3f50;stroke-width:11.25244331;stroke-linecap:round;stroke-linejoin:round;stroke-miterlimit:4;stroke-dasharray:none;stroke-dashoffset:45.24000168;stroke-opacity:1" />
  </g>
  <path
     style="fill:#00baaa;fill-rule:evenodd;stroke:#2d3f50;stroke-width:13.125;stroke-linecap:butt;stroke-linejoin:miter;stroke-miterlimit:4;stroke-dasharray:none;stroke-opacity:1;fill-opacity:1"
     d="m 52.189617,521.8623 158.924693,0 34.75386,-22.32301 446.50853,2.2299 -58.48641,232.10902 -520.37158,0 z"
     id="path7359"
     inkscape:connector-curvature="0"
     sodipodi:nodetypes="ccccccc" />
  <g
     style="font-style:normal;font-weight:normal;font-size:101.08537292px;line-height:125%;font-family:sans-serif;letter-spacing:0px;word-spacing:0px;fill:#2d3f50;fill-opacity:1;stroke:none;stroke-width:1px;stroke-linecap:butt;stroke-linejoin:miter;stroke-opacity:1"
     id="text7214">
    <path
       d="m 163.07193,603.83282 q 1.61737,2.02171 4.04342,5.35753 2.52713,3.23473 5.15535,7.27815 2.62822,3.94233 5.15536,8.289 2.62822,4.34667 4.44775,8.39008 l -10.71505,0 q -2.02171,-3.84124 -4.44775,-7.78357 -2.32497,-3.94233 -4.75102,-7.48032 -2.42605,-3.63907 -4.85209,-6.77272 -2.32497,-3.13364 -4.24559,-5.45861 -1.31411,0.10109 -2.72931,0.10109 -1.3141,0 -2.7293,0 l -8.79443,0 0,27.39413 -9.80528,0 0,-69.04131 q 4.1445,-1.01085 9.19877,-1.31411 5.15535,-0.40434 9.40094,-0.40434 14.75846,0 22.44095,5.5597 7.78358,5.55969 7.78358,16.578 0,6.97489 -3.74016,11.92807 -3.63908,4.95319 -10.81614,7.37923 z m -14.85955,-32.85274 q -6.26729,0 -9.60311,0.30325 l 0,26.38329 6.97489,0 q 5.05427,0 9.09769,-0.50543 4.04341,-0.50543 6.77272,-1.92062 2.83039,-1.4152 4.34667,-3.94233 1.51628,-2.62822 1.51628,-6.87381 0,-3.94233 -1.51628,-6.57055 -1.51628,-2.62822 -4.1445,-4.1445 -2.52714,-1.51628 -6.06512,-2.12279 -3.43691,-0.60651 -7.37924,-0.60651 z"
       style="font-style:normal;font-variant:normal;font-weight:normal;font-stretch:normal;font-size:101.08537292px;line-height:125%;font-family:Ubuntu;-inkscape-font-specification:'Ubuntu, Normal';text-align:start;writing-mode:lr-tb;text-anchor:start;fill:#2d3f50;fill-opacity:1"
       id="path7233" />
    <path
       d="m 188.83923,606.96647 q 0,-6.97489 2.0217,-12.13024 2.02171,-5.25644 5.35753,-8.69335 3.33582,-3.4369 7.68249,-5.15535 4.34667,-1.71845 8.89551,-1.71845 10.61396,0 16.27474,6.67163 5.66079,6.57055 5.66079,20.11599 0,0.60652 0,1.61737 0,0.90977 -0.10109,1.71845 l -35.98639,0 q 0.60651,8.18792 4.75101,12.4335 4.1445,4.24559 12.93893,4.24559 4.95318,0 8.289,-0.80869 3.4369,-0.90976 5.15535,-1.71845 l 1.31411,7.88466 q -1.71845,0.90977 -6.06512,1.92062 -4.24559,1.01086 -9.7042,1.01086 -6.8738,0 -11.92807,-2.02171 -4.95318,-2.12279 -8.18792,-5.76187 -3.23473,-3.63907 -4.85209,-8.59225 -1.51628,-5.05427 -1.51628,-11.01831 z m 36.08747,-5.15535 q 0.10109,-6.36838 -3.23473,-10.4118 -3.23473,-4.1445 -8.9966,-4.1445 -3.23473,0 -5.76186,1.31411 -2.42605,1.21303 -4.1445,3.23474 -1.71845,2.0217 -2.72931,4.64992 -0.90977,2.62822 -1.21302,5.35753 l 26.08002,0 z"
       style="font-style:normal;font-variant:normal;font-weight:normal;font-stretch:normal;font-size:101.08537292px;line-height:125%;font-family:Ubuntu;-inkscape-font-specification:'Ubuntu, Normal';text-align:start;writing-mode:lr-tb;text-anchor:start;fill:#2d3f50;fill-opacity:1"
       id="path7235" />
    <path
       d="m 266.02738,626.37486 q 3.33582,0 5.86296,-0.10108 2.62822,-0.20217 4.34667,-0.60651 l 0,-15.66824 q -1.01086,-0.50542 -3.33582,-0.80868 -2.22388,-0.40434 -5.45861,-0.40434 -2.12279,0 -4.54884,0.30325 -2.32497,0.30326 -4.34667,1.31411 -1.92063,0.90977 -3.23474,2.62822 -1.31411,1.61737 -1.31411,4.34667 0,5.05427 3.23474,7.07598 3.23473,1.92062 8.79442,1.92062 z m -0.80868,-47.10578 q 5.66078,0 9.50203,1.51628 3.94233,1.4152 6.26729,4.1445 2.42605,2.62822 3.4369,6.36838 1.01086,3.63907 1.01086,8.08683 l 0,32.85274 q -1.21303,0.20218 -3.43691,0.60652 -2.12279,0.30325 -4.8521,0.60651 -2.7293,0.30326 -5.96403,0.50543 -3.13365,0.30325 -6.2673,0.30325 -4.44775,0 -8.18791,-0.90977 -3.74016,-0.90976 -6.46946,-2.83039 -2.72931,-2.0217 -4.24559,-5.25644 -1.51628,-3.23473 -1.51628,-7.78357 0,-4.34667 1.71845,-7.48032 1.81954,-3.13364 4.8521,-5.05427 3.03256,-1.92062 7.07597,-2.83039 4.04342,-0.90976 8.49118,-0.90976 1.41519,0 2.93147,0.20217 1.51628,0.10108 2.83039,0.40434 1.4152,0.20217 2.42605,0.40434 1.01086,0.20217 1.4152,0.30326 l 0,-2.62822 q 0,-2.32497 -0.50543,-4.54885 -0.50543,-2.32496 -1.81954,-4.04341 -1.31411,-1.81954 -3.63907,-2.83039 -2.22388,-1.11194 -5.86295,-1.11194 -4.64993,0 -8.18792,0.7076 -3.4369,0.60651 -5.15535,1.31411 l -1.11194,-7.78358 q 1.81954,-0.80868 6.06512,-1.51628 4.24559,-0.80868 9.19877,-0.80868 z"
       style="font-style:normal;font-variant:normal;font-weight:normal;font-stretch:normal;font-size:101.08537292px;line-height:125%;font-family:Ubuntu;-inkscape-font-specification:'Ubuntu, Normal';text-align:start;writing-mode:lr-tb;text-anchor:start;fill:#2d3f50;fill-opacity:1"
       id="path7237" />
    <path
       d="m 316.72012,634.15844 q -8.69334,-0.20217 -12.33241,-3.74016 -3.63908,-3.53799 -3.63908,-11.01831 l 0,-63.07727 9.40094,-1.61737 0,63.17836 q 0,2.32497 0.40435,3.84125 0.40434,1.51628 1.31411,2.42604 0.90976,0.90977 2.42604,1.4152 1.51629,0.40434 3.74016,0.7076 l -1.31411,7.88466 z"
       style="font-style:normal;font-variant:normal;font-weight:normal;font-stretch:normal;font-size:101.08537292px;line-height:125%;font-family:Ubuntu;-inkscape-font-specification:'Ubuntu, Normal';text-align:start;writing-mode:lr-tb;text-anchor:start;fill:#2d3f50;fill-opacity:1"
       id="path7239" />
    <path
       d="m 352.49486,633.14758 0,-70.05216 42.75912,0 0,8.39009 -32.95384,0 0,20.82358 29.31476,0 0,8.18792 -29.31476,0 0,24.26049 35.48097,0 0,8.39008 -45.28625,0 z"
       style="font-style:normal;font-variant:normal;font-weight:normal;font-stretch:normal;font-size:101.08537292px;line-height:125%;font-family:Ubuntu;-inkscape-font-specification:'Ubuntu, Normal';text-align:start;writing-mode:lr-tb;text-anchor:start;fill:#2d3f50;fill-opacity:1"
       id="path7241" />
    <path
       d="m 421.76993,626.37486 q 5.76187,0 8.49118,-1.51628 2.83039,-1.51628 2.83039,-4.8521 0,-3.4369 -2.72931,-5.45861 -2.7293,-2.0217 -8.9966,-4.54884 -3.03256,-1.21302 -5.86295,-2.42605 -2.7293,-1.31411 -4.75101,-3.03256 -2.02171,-1.71845 -3.23473,-4.1445 -1.21303,-2.42605 -1.21303,-5.96403 0,-6.9749 5.15536,-11.01831 5.15535,-4.1445 14.05086,-4.1445 2.22388,0 4.44776,0.30326 2.22388,0.20217 4.1445,0.60651 1.92062,0.30325 3.33582,0.7076 1.51628,0.40434 2.32496,0.70759 l -1.71845,8.08683 q -1.51628,-0.80868 -4.75101,-1.61736 -3.23473,-0.90977 -7.78358,-0.90977 -3.94233,0 -6.8738,1.61736 -2.93148,1.51628 -2.93148,4.8521 0,1.71845 0.60651,3.03256 0.7076,1.31411 2.02171,2.42605 1.4152,1.01086 3.4369,1.92062 2.02171,0.90977 4.8521,1.92063 3.74016,1.41519 6.67164,2.83039 2.93147,1.31411 4.95318,3.13364 2.12279,1.81954 3.23473,4.44776 1.11194,2.52713 1.11194,6.26729 0,7.27815 -5.45861,11.01831 -5.35752,3.74016 -15.36498,3.74016 -6.97489,0 -10.91722,-1.21303 -3.94233,-1.11194 -5.35752,-1.71845 l 1.71845,-8.08683 q 1.61737,0.60651 5.15535,1.81954 3.53799,1.21302 9.40094,1.21302 z"
       style="font-style:normal;font-variant:normal;font-weight:normal;font-stretch:normal;font-size:101.08537292px;line-height:125%;font-family:Ubuntu;-inkscape-font-specification:'Ubuntu, Normal';text-align:start;writing-mode:lr-tb;text-anchor:start;fill:#2d3f50;fill-opacity:1"
       id="path7243" />
    <path
       d="m 463.34762,580.58319 19.91382,0 0,7.88466 -19.91382,0 0,24.26049 q 0,3.94233 0.60651,6.57055 0.60651,2.52713 1.81954,4.04341 1.21302,1.4152 3.03256,2.02171 1.81954,0.60651 4.24559,0.60651 4.24558,0 6.77272,-0.90977 2.62821,-1.01085 3.63907,-1.41519 l 1.81954,7.78357 q -1.4152,0.7076 -4.95319,1.71845 -3.53799,1.11194 -8.08683,1.11194 -5.35752,0 -8.89551,-1.31411 -3.4369,-1.41519 -5.5597,-4.1445 -2.12279,-2.7293 -3.03256,-6.67163 -0.80868,-4.04342 -0.80868,-9.29986 l 0,-46.90361 9.40094,-1.61737 0,16.27475 z"
       style="font-style:normal;font-variant:normal;font-weight:normal;font-stretch:normal;font-size:101.08537292px;line-height:125%;font-family:Ubuntu;-inkscape-font-specification:'Ubuntu, Normal';text-align:start;writing-mode:lr-tb;text-anchor:start;fill:#2d3f50;fill-opacity:1"
       id="path7245" />
    <path
       d="m 513.01527,626.37486 q 3.33582,0 5.86295,-0.10108 2.62822,-0.20217 4.34667,-0.60651 l 0,-15.66824 q -1.01085,-0.50542 -3.33582,-0.80868 -2.22387,-0.40434 -5.45861,-0.40434 -2.12279,0 -4.54884,0.30325 -2.32496,0.30326 -4.34667,1.31411 -1.92062,0.90977 -3.23473,2.62822 -1.31411,1.61737 -1.31411,4.34667 0,5.05427 3.23473,7.07598 3.23473,1.92062 8.79443,1.92062 z m -0.80868,-47.10578 q 5.66078,0 9.50202,1.51628 3.94233,1.4152 6.26729,4.1445 2.42605,2.62822 3.43691,6.36838 1.01085,3.63907 1.01085,8.08683 l 0,32.85274 q -1.21302,0.20218 -3.4369,0.60652 -2.1228,0.30325 -4.8521,0.60651 -2.72931,0.30326 -5.96404,0.50543 -3.13364,0.30325 -6.26729,0.30325 -4.44776,0 -8.18792,-0.90977 -3.74015,-0.90976 -6.46946,-2.83039 -2.7293,-2.0217 -4.24559,-5.25644 -1.51628,-3.23473 -1.51628,-7.78357 0,-4.34667 1.71846,-7.48032 1.81953,-3.13364 4.85209,-5.05427 3.03256,-1.92062 7.07598,-2.83039 4.04341,-0.90976 8.49117,-0.90976 1.4152,0 2.93148,0.20217 1.51628,0.10108 2.83039,0.40434 1.41519,0.20217 2.42605,0.40434 1.01085,0.20217 1.41519,0.30326 l 0,-2.62822 q 0,-2.32497 -0.50543,-4.54885 -0.50542,-2.32496 -1.81953,-4.04341 -1.31411,-1.81954 -3.63908,-2.83039 -2.22387,-1.11194 -5.86295,-1.11194 -4.64992,0 -8.18791,0.7076 -3.43691,0.60651 -5.15536,1.31411 l -1.11194,-7.78358 q 1.81954,-0.80868 6.06513,-1.51628 4.24558,-0.80868 9.19877,-0.80868 z"
       style="font-style:normal;font-variant:normal;font-weight:normal;font-stretch:normal;font-size:101.08537292px;line-height:125%;font-family:Ubuntu;-inkscape-font-specification:'Ubuntu, Normal';text-align:start;writing-mode:lr-tb;text-anchor:start;fill:#2d3f50;fill-opacity:1"
       id="path7247" />
    <path
       d="m 556.73312,580.58319 19.91382,0 0,7.88466 -19.91382,0 0,24.26049 q 0,3.94233 0.60651,6.57055 0.60651,2.52713 1.81954,4.04341 1.21302,1.4152 3.03256,2.02171 1.81953,0.60651 4.24558,0.60651 4.24559,0 6.77272,-0.90977 2.62822,-1.01085 3.63908,-1.41519 l 1.81953,7.78357 q -1.41519,0.7076 -4.95318,1.71845 -3.53799,1.11194 -8.08683,1.11194 -5.35752,0 -8.89551,-1.31411 -3.43691,-1.41519 -5.5597,-4.1445 -2.12279,-2.7293 -3.03256,-6.67163 -0.80868,-4.04342 -0.80868,-9.29986 l 0,-46.90361 9.40094,-1.61737 0,16.27475 z"
       style="font-style:normal;font-variant:normal;font-weight:normal;font-stretch:normal;font-size:101.08537292px;line-height:125%;font-family:Ubuntu;-inkscape-font-specification:'Ubuntu, Normal';text-align:start;writing-mode:lr-tb;text-anchor:start;fill:#2d3f50;fill-opacity:1"
       id="path7249" />
    <path
       d="m 584.69111,606.96647 q 0,-6.97489 2.02171,-12.13024 2.02171,-5.25644 5.35753,-8.69335 3.33581,-3.4369 7.68248,-5.15535 4.34667,-1.71845 8.89552,-1.71845 10.61396,0 16.27474,6.67163 5.66078,6.57055 5.66078,20.11599 0,0.60652 0,1.61737 0,0.90977 -0.10108,1.71845 l -35.9864,0 q 0.60652,8.18792 4.75102,12.4335 4.1445,4.24559 12.93892,4.24559 4.95319,0 8.28901,-0.80869 3.4369,-0.90976 5.15535,-1.71845 l 1.31411,7.88466 q -1.71845,0.90977 -6.06512,1.92062 -4.24559,1.01086 -9.7042,1.01086 -6.8738,0 -11.92807,-2.02171 -4.95319,-2.12279 -8.18792,-5.76187 -3.23473,-3.63907 -4.8521,-8.59225 -1.51628,-5.05427 -1.51628,-11.01831 z m 36.08748,-5.15535 q 0.10109,-6.36838 -3.23473,-10.4118 -3.23473,-4.1445 -8.9966,-4.1445 -3.23473,0 -5.76187,1.31411 -2.42604,1.21303 -4.1445,3.23474 -1.71845,2.0217 -2.7293,4.64992 -0.90977,2.62822 -1.21303,5.35753 l 26.08003,0 z"
       style="font-style:normal;font-variant:normal;font-weight:normal;font-stretch:normal;font-size:101.08537292px;line-height:125%;font-family:Ubuntu;-inkscape-font-specification:'Ubuntu, Normal';text-align:start;writing-mode:lr-tb;text-anchor:start;fill:#2d3f50;fill-opacity:1"
       id="path7251" />
  </g>
  <path
     style="fill:#00baaa;fill-opacity:1;fill-rule:evenodd;stroke:#2d3f50;stroke-width:14.14624882;stroke-linecap:round;stroke-linejoin:round;stroke-miterlimit:4;stroke-dasharray:none;stroke-opacity:1"
     d="m 468.99525,65.415998 -157.29589,151.292182 0,156.09692 157.29589,0 157.29888,0 0,-156.09692 L 468.99525,65.415998 Z"
     id="path7218"
     inkscape:connector-curvature="0" />
  <path
     style="opacity:1;fill:#00baaa;fill-opacity:1;fill-rule:evenodd;stroke:#2d3f50;stroke-width:14.14624977;stroke-linecap:round;stroke-linejoin:round;stroke-miterlimit:4;stroke-dasharray:none;stroke-opacity:1"
     d="m 412.5987,216.70818 106.08687,0 0,156.09692 -106.08687,0 z"
     id="rect7229"
     inkscape:connector-curvature="0" />
  <g
     transform="matrix(0.99897006,0,0,1.001031,1.0469316,0.22962004)"
     style="font-style:normal;font-weight:normal;font-size:89.90730286px;line-height:125%;font-family:sans-serif;letter-spacing:0px;word-spacing:0px;fill:#2d3f50;fill-opacity:1;stroke:none;stroke-width:1px;stroke-linecap:butt;stroke-linejoin:miter;stroke-opacity:1"
     id="text7348">
    <path
       d="m 140.66411,654.91814 q 10.20947,0 15.66385,3.91597 5.5243,3.84603 5.5243,11.5381 0,4.19567 -1.53841,7.20257 -1.46848,2.93698 -4.33553,4.82503 -2.79711,1.81813 -6.85293,2.65726 -4.05582,0.83913 -9.16056,0.83913 l -5.38445,0 0,17.97148 -6.783,0 0,-47.76076 q 2.86704,-0.69928 6.36344,-0.90906 3.56632,-0.27972 6.50329,-0.27972 z m 0.55942,5.94388 q -4.33553,0 -6.64315,0.20978 l 0,19.02039 5.10474,0 q 3.4964,0 6.29351,-0.41957 2.79712,-0.48949 4.68517,-1.53841 1.95798,-1.11885 3.0069,-3.0069 1.04892,-1.88806 1.04892,-4.82503 0,-2.79711 -1.11885,-4.61524 -1.04892,-1.81812 -2.93697,-2.86704 -1.81812,-1.11885 -4.2656,-1.53842 -2.44748,-0.41956 -5.17467,-0.41956 z"
       style="font-style:normal;font-variant:normal;font-weight:normal;font-stretch:normal;font-size:69.92790222px;font-family:Ubuntu;-inkscape-font-specification:Ubuntu;fill:#2d3f50;fill-opacity:1;stroke:none;stroke-opacity:1"
       id="path3226"
       inkscape:connector-curvature="0" />
    <path
       d="m 200.76168,655.40764 6.78301,0 0,48.46004 -6.78301,0 0,-22.37693 -23.70556,0 0,22.37693 -6.783,0 0,-48.46004 6.783,0 0,20.20916 23.70556,0 0,-20.20916 z"
       style="font-style:normal;font-variant:normal;font-weight:normal;font-stretch:normal;font-size:69.92790222px;font-family:Ubuntu;-inkscape-font-specification:Ubuntu;fill:#2d3f50;fill-opacity:1;stroke:none;stroke-opacity:1"
       id="path3228"
       inkscape:connector-curvature="0" />
    <path
       d="m 217.61977,679.60269 q 0,-6.22358 1.81812,-10.97868 1.88806,-4.75509 5.03481,-7.90185 3.21669,-3.21668 7.41236,-4.82503 4.2656,-1.60834 9.0207,-1.60834 4.68517,0 8.81092,1.60834 4.19567,1.60835 7.34242,4.82503 3.14676,3.14676 4.96489,7.90185 1.88805,4.7551 1.88805,10.97868 0,6.22359 -1.88805,10.97868 -1.81813,4.7551 -4.96489,7.97179 -3.14675,3.14675 -7.34242,4.75509 -4.12575,1.60834 -8.81092,1.60834 -4.7551,0 -9.0207,-1.60834 -4.19567,-1.60834 -7.41236,-4.75509 -3.14675,-3.21669 -5.03481,-7.97179 -1.81812,-4.75509 -1.81812,-10.97868 z m 7.13264,0 q 0,4.40546 1.11885,8.04171 1.11885,3.56633 3.14676,6.08373 2.09783,2.5174 5.0348,3.91596 3.0069,1.32863 6.71308,1.32863 3.70618,0 6.64315,-1.32863 2.93698,-1.39856 4.96489,-3.91596 2.09783,-2.5174 3.21668,-6.08373 1.11885,-3.63625 1.11885,-8.04171 0,-4.40545 -1.11885,-7.97178 -1.11885,-3.63625 -3.21668,-6.15365 -2.02791,-2.51741 -4.96489,-3.84604 -2.93697,-1.39856 -6.64315,-1.39856 -3.70618,0 -6.71308,1.39856 -2.93697,1.32863 -5.0348,3.84604 -2.02791,2.5174 -3.14676,6.15365 -1.11885,3.56633 -1.11885,7.97178 z"
       style="font-style:normal;font-variant:normal;font-weight:normal;font-stretch:normal;font-size:69.92790222px;font-family:Ubuntu;-inkscape-font-specification:Ubuntu;fill:#2d3f50;fill-opacity:1;stroke:none;stroke-opacity:1"
       id="path3230"
       inkscape:connector-curvature="0" />
    <path
       d="m 304.4003,655.40764 0,5.87394 -15.24428,0 0,42.5861 -6.78301,0 0,-42.5861 -15.24428,0 0,-5.87394 37.27157,0 z"
       style="font-style:normal;font-variant:normal;font-weight:normal;font-stretch:normal;font-size:69.92790222px;font-family:Ubuntu;-inkscape-font-specification:Ubuntu;fill:#2d3f50;fill-opacity:1;stroke:none;stroke-opacity:1"
       id="path3232"
       inkscape:connector-curvature="0" />
    <path
       d="m 307.62463,679.60269 q 0,-6.22358 1.81812,-10.97868 1.88806,-4.75509 5.03481,-7.90185 3.21669,-3.21668 7.41236,-4.82503 4.2656,-1.60834 9.0207,-1.60834 4.68517,0 8.81091,1.60834 4.19568,1.60835 7.34243,4.82503 3.14676,3.14676 4.96489,7.90185 1.88805,4.7551 1.88805,10.97868 0,6.22359 -1.88805,10.97868 -1.81813,4.7551 -4.96489,7.97179 -3.14675,3.14675 -7.34243,4.75509 -4.12574,1.60834 -8.81091,1.60834 -4.7551,0 -9.0207,-1.60834 -4.19567,-1.60834 -7.41236,-4.75509 -3.14675,-3.21669 -5.03481,-7.97179 -1.81812,-4.75509 -1.81812,-10.97868 z m 7.13264,0 q 0,4.40546 1.11885,8.04171 1.11885,3.56633 3.14676,6.08373 2.09783,2.5174 5.0348,3.91596 3.0069,1.32863 6.71308,1.32863 3.70618,0 6.64315,-1.32863 2.93698,-1.39856 4.96489,-3.91596 2.09783,-2.5174 3.21668,-6.08373 1.11885,-3.63625 1.11885,-8.04171 0,-4.40545 -1.11885,-7.97178 -1.11885,-3.63625 -3.21668,-6.15365 -2.02791,-2.51741 -4.96489,-3.84604 -2.93697,-1.39856 -6.64315,-1.39856 -3.70618,0 -6.71308,1.39856 -2.93697,1.32863 -5.0348,3.84604 -2.02791,2.5174 -3.14676,6.15365 -1.11885,3.56633 -1.11885,7.97178 z"
       style="font-style:normal;font-variant:normal;font-weight:normal;font-stretch:normal;font-size:69.92790222px;font-family:Ubuntu;-inkscape-font-specification:Ubuntu;fill:#2d3f50;fill-opacity:1;stroke:none;stroke-opacity:1"
       id="path3234"
       inkscape:connector-curvature="0" />
    <path
       d="m 393.52013,680.02226 6.78301,0 0,22.65664 q -0.83914,0.27971 -2.44748,0.62935 -1.53842,0.34964 -3.63625,0.69928 -2.02791,0.34964 -4.47539,0.55942 -2.44747,0.27972 -4.96488,0.27972 -5.10474,0 -9.30041,-1.67827 -4.19567,-1.67827 -7.20257,-4.89496 -3.0069,-3.21668 -4.68517,-7.90185 -1.60835,-4.68517 -1.60835,-10.7689 0,-6.08372 1.81813,-10.76889 1.88805,-4.7551 5.03481,-7.97178 3.14675,-3.21669 7.34243,-4.89496 4.2656,-1.67827 9.09063,-1.67827 3.28661,0 5.80401,0.41957 2.58733,0.41957 4.40546,0.97899 1.81813,0.55942 2.93697,1.11885 1.18878,0.55942 1.60834,0.83913 l -2.16776,5.66416 q -2.02791,-1.32863 -5.38445,-2.16776 -3.35654,-0.90907 -6.85293,-0.90907 -3.70618,0 -6.78301,1.32863 -3.0069,1.32864 -5.17467,3.84604 -2.09783,2.5174 -3.28661,6.15365 -1.18877,3.56633 -1.18877,8.04171 0,4.33553 0.97899,7.90186 1.04892,3.56632 3.07683,6.15365 2.09783,2.51741 5.10473,3.91596 3.07683,1.39856 7.20258,1.39856 2.93697,0 4.96488,-0.27971 2.09784,-0.34964 3.0069,-0.62935 l 0,-18.0414 z"
       style="font-style:normal;font-variant:normal;font-weight:normal;font-stretch:normal;font-size:69.92790222px;font-family:Ubuntu;-inkscape-font-specification:Ubuntu;fill:#2d3f50;fill-opacity:1;stroke:none;stroke-opacity:1"
       id="path3236"
       inkscape:connector-curvature="0" />
    <path
       d="m 434.629,683.58858 q 1.11885,1.39856 2.79712,3.70618 1.7482,2.2377 3.56632,5.03481 1.81813,2.72719 3.56633,5.73409 1.81812,3.0069 3.07682,5.80402 l -7.41235,0 q -1.39856,-2.65726 -3.07683,-5.38445 -1.60834,-2.72719 -3.28661,-5.17467 -1.67827,-2.5174 -3.35654,-4.68517 -1.60834,-2.16776 -2.93697,-3.7761 -0.90907,0.0699 -1.88806,0.0699 -0.90906,0 -1.88805,0 l -6.08373,0 0,18.95047 -6.78301,0 0,-47.76076 q 2.86705,-0.69928 6.36344,-0.90906 3.56633,-0.27972 6.5033,-0.27972 10.20947,0 15.52399,3.84604 5.38445,3.84603 5.38445,11.46817 0,4.82503 -2.58733,8.2515 -2.51741,3.42646 -7.48229,5.10473 z m -10.2794,-22.72656 q -4.33553,0 -6.64315,0.20978 l 0,18.25118 4.82503,0 q 3.49639,0 6.29351,-0.34964 2.79711,-0.34964 4.68517,-1.32863 1.95798,-0.97899 3.0069,-2.72719 1.04892,-1.81812 1.04892,-4.75509 0,-2.72719 -1.04892,-4.54532 -1.04892,-1.81812 -2.86705,-2.86704 -1.74819,-1.04892 -4.19567,-1.46849 -2.37755,-0.41956 -5.10474,-0.41956 z"
       style="font-style:normal;font-variant:normal;font-weight:normal;font-stretch:normal;font-size:69.92790222px;font-family:Ubuntu;-inkscape-font-specification:Ubuntu;fill:#2d3f50;fill-opacity:1;stroke:none;stroke-opacity:1"
       id="path3238"
       inkscape:connector-curvature="0" />
    <path
       d="m 489.19023,703.86768 q -1.18877,-3.14676 -2.23769,-6.15366 -1.04892,-3.07683 -2.16777,-6.22358 l -21.95736,0 -4.40546,12.37724 -7.06271,0 q 2.79711,-7.69207 5.24459,-14.19537 2.44747,-6.57322 4.7551,-12.44716 2.37754,-5.87395 4.68517,-11.18847 2.30762,-5.38445 4.82502,-10.62904 l 6.22358,0 q 2.51741,5.24459 4.82503,10.62904 2.30762,5.31452 4.61524,11.18847 2.37755,5.87394 4.82503,12.44716 2.44747,6.5033 5.24459,14.19537 l -7.41236,0 z m -6.36344,-17.97148 q -2.23769,-6.08372 -4.47538,-11.74788 -2.16777,-5.73409 -4.54532,-10.97868 -2.44747,5.24459 -4.68517,10.97868 -2.16776,5.66416 -4.33553,11.74788 l 18.0414,0 z"
       style="font-style:normal;font-variant:normal;font-weight:normal;font-stretch:normal;font-size:69.92790222px;font-family:Ubuntu;-inkscape-font-specification:Ubuntu;fill:#2d3f50;fill-opacity:1;stroke:none;stroke-opacity:1"
       id="path3240"
       inkscape:connector-curvature="0" />
    <path
       d="m 515.98027,654.91814 q 10.20948,0 15.66385,3.91597 5.52431,3.84603 5.52431,11.5381 0,4.19567 -1.53842,7.20257 -1.46848,2.93698 -4.33553,4.82503 -2.79711,1.81813 -6.85293,2.65726 -4.05582,0.83913 -9.16056,0.83913 l -5.38444,0 0,17.97148 -6.78301,0 0,-47.76076 q 2.86704,-0.69928 6.36344,-0.90906 3.56632,-0.27972 6.50329,-0.27972 z m 0.55943,5.94388 q -4.33553,0 -6.64315,0.20978 l 0,19.02039 5.10473,0 q 3.4964,0 6.29351,-0.41957 2.79712,-0.48949 4.68517,-1.53841 1.95798,-1.11885 3.0069,-3.0069 1.04892,-1.88806 1.04892,-4.82503 0,-2.79711 -1.11885,-4.61524 -1.04891,-1.81812 -2.93697,-2.86704 -1.81812,-1.11885 -4.2656,-1.53842 -2.44748,-0.41956 -5.17466,-0.41956 z"
       style="font-style:normal;font-variant:normal;font-weight:normal;font-stretch:normal;font-size:69.92790222px;font-family:Ubuntu;-inkscape-font-specification:Ubuntu;fill:#2d3f50;fill-opacity:1;stroke:none;stroke-opacity:1"
       id="path3242"
       inkscape:connector-curvature="0" />
    <path
       d="m 576.07784,655.40764 6.78301,0 0,48.46004 -6.78301,0 0,-22.37693 -23.70556,0 0,22.37693 -6.783,0 0,-48.46004 6.783,0 0,20.20916 23.70556,0 0,-20.20916 z"
       style="font-style:normal;font-variant:normal;font-weight:normal;font-stretch:normal;font-size:69.92790222px;font-family:Ubuntu;-inkscape-font-specification:Ubuntu;fill:#2d3f50;fill-opacity:1;stroke:none;stroke-opacity:1"
       id="path3244"
       inkscape:connector-curvature="0" />
    <path
       d="m 606.43201,703.86768 0,-19.43996 q -4.82503,-7.48229 -9.09063,-14.75479 -4.2656,-7.2725 -8.04171,-14.26529 l 7.97178,0 q 2.65726,5.73409 5.94387,11.67796 3.28662,5.87394 6.78301,11.32832 3.42647,-5.45438 6.71308,-11.32832 3.28661,-5.94387 6.0138,-11.67796 l 7.55221,0 q -3.7761,6.99279 -8.04171,14.26529 -4.2656,7.20258 -9.0207,14.61493 l 0,19.57982 -6.783,0 z"
       style="font-style:normal;font-variant:normal;font-weight:normal;font-stretch:normal;font-size:69.92790222px;font-family:Ubuntu;-inkscape-font-specification:Ubuntu;fill:#2d3f50;fill-opacity:1;stroke:none;stroke-opacity:1"
       id="path3246"
       inkscape:connector-curvature="0" />
  </g>
</svg>
