<?xml version="1.0" encoding="UTF-8" standalone="no"?>
<!-- Created with Inkscape (http://www.inkscape.org/) -->

<svg
   xmlns:dc="http://purl.org/dc/elements/1.1/"
   xmlns:cc="http://creativecommons.org/ns#"
   xmlns:rdf="http://www.w3.org/1999/02/22-rdf-syntax-ns#"
   xmlns:svg="http://www.w3.org/2000/svg"
   xmlns="http://www.w3.org/2000/svg"
   xmlns:sodipodi="http://sodipodi.sourceforge.net/DTD/sodipodi-0.dtd"
   xmlns:inkscape="http://www.inkscape.org/namespaces/inkscape"
   width="263.65503mm"
   height="263.65503mm"
   viewBox="0 0 263.65503 263.65502"
   version="1.1"
   id="svg8"
   inkscape:version="0.91 r13725"
   sodipodi:docname="Real Estate Photography.svg"
   inkscape:export-filename="/media/caden/4b318beb-9358-4d54-9811-712cb10a1db8/home/caden/Documents/Inkscape Projects/Misc./Real Estate Photography.png"
   inkscape:export-xdpi="91.521103"
   inkscape:export-ydpi="91.521103">
  <defs
     id="defs2" />
  <sodipodi:namedview
     id="base"
     pagecolor="#ffffff"
     bordercolor="#666666"
     borderopacity="1.0"
     inkscape:pageopacity="0.0"
     inkscape:pageshadow="2"
     inkscape:zoom="0.35355339"
     inkscape:cx="585.0456"
     inkscape:cy="542.56325"
     inkscape:document-units="mm"
     inkscape:current-layer="layer1"
     showgrid="false"
     inkscape:pagecheckerboard="true"
     inkscape:showpageshadow="false"
     showborder="false"
     fit-margin-top="0"
     fit-margin-left="0"
     fit-margin-right="0"
     fit-margin-bottom="0"
     inkscape:window-width="1366"
     inkscape:window-height="688"
     inkscape:window-x="0"
     inkscape:window-y="0"
     inkscape:window-maximized="1"
     inkscape:object-paths="true"
     inkscape:snap-intersection-paths="true"
     inkscape:object-nodes="true"
     inkscape:snap-smooth-nodes="true"
     inkscape:snap-midpoints="true"
     inkscape:snap-nodes="false" />
  <metadata
     id="metadata5">
    <rdf:RDF>
      <cc:Work
         rdf:about="">
        <dc:format>image/svg+xml</dc:format>
        <dc:type
           rdf:resource="http://purl.org/dc/dcmitype/StillImage" />
        <dc:title></dc:title>
      </cc:Work>
    </rdf:RDF>
  </metadata>
  <g
     inkscape:label="Layer 1"
     inkscape:groupmode="layer"
     id="layer1"
     transform="translate(247.23159,0.34153725)">
    <path
       style="opacity:1;fill:#ffffff;fill-opacity:1;fill-rule:evenodd;stroke:#000000;stroke-width:5.29166651;stroke-linecap:round;stroke-miterlimit:4;stroke-dasharray:none;stroke-opacity:1"
       d="m -244.58576,2.304296 258.363353,0 0,258.363354 -258.363353,0 z"
       id="rect7114"
       inkscape:connector-curvature="0" />
    <g
       id="g7047"
       transform="translate(-32.783514,-41.114651)">
      <path
         inkscape:connector-curvature="0"
         style="opacity:1;fill:#ffffff;fill-opacity:1;fill-rule:evenodd;stroke:#000000;stroke-width:5.29166651;stroke-linecap:round;stroke-miterlimit:4;stroke-dasharray:none;stroke-opacity:1"
         d="m -34.078348,158.85223 a 48.542218,48.542223 0 0 1 -48.542218,48.54223 48.542218,48.542223 0 0 1 -48.542224,-48.54223 48.542218,48.542223 0 0 1 48.542224,-48.54222 48.542218,48.542223 0 0 1 48.542218,48.54222 z"
         id="path7039" />
      <path
         id="path7034"
         d="m -43.109459,158.85223 a 39.511108,39.511112 0 0 1 -39.511108,39.51112 39.511108,39.511112 0 0 1 -39.511113,-39.51112 39.511108,39.511112 0 0 1 39.511113,-39.51111 39.511108,39.511112 0 0 1 39.511108,39.51111 z"
         style="opacity:1;fill:#000000;fill-opacity:1;fill-rule:evenodd;stroke:none;stroke-width:5.625;stroke-linecap:round;stroke-miterlimit:4;stroke-dasharray:none;stroke-opacity:1"
         inkscape:connector-curvature="0" />
    </g>
    <path
       sodipodi:nodetypes="cccccc"
       inkscape:connector-curvature="0"
       id="path7043"
       d="m -14.842495,179.89067 0,-120.135867 -100.561585,-49.028152 -100.56159,49.028152 0,120.135867 z"
       style="fill:none;fill-rule:evenodd;stroke:#000000;stroke-width:5.29166651;stroke-linecap:butt;stroke-linejoin:miter;stroke-miterlimit:4;stroke-dasharray:none;stroke-opacity:1" />
    <path
       style="fill:none;fill-rule:evenodd;stroke:#000000;stroke-width:5.29166651;stroke-linecap:butt;stroke-linejoin:miter;stroke-miterlimit:4;stroke-dasharray:none;stroke-opacity:1"
       d="m -189.17186,46.691654 0,-34.916642 29.88158,0 0,20.348071 z"
       id="path7051"
       inkscape:connector-curvature="0"
       sodipodi:nodetypes="ccccc" />
    <path
       style="opacity:1;fill:#ffffff;fill-opacity:1;fill-rule:evenodd;stroke:none;stroke-width:5.29166651;stroke-linecap:round;stroke-miterlimit:4;stroke-dasharray:none;stroke-opacity:1"
       d="m -88.501552,99.012439 c -2.032431,5.129081 -10.233749,-8.00421 -26.902528,-8.00421 -16.66878,0 -24.66809,13.643041 -26.90252,8.00421 -2.13354,-5.38422 12.04466,-16.27041 26.90252,-16.27041 14.85786,0 29.03607,10.88619 26.902528,16.27041 z"
       id="path7053"
       inkscape:connector-curvature="0"
       sodipodi:nodetypes="sssss" />
    <g
       style="font-style:normal;font-weight:normal;font-size:31.84472656px;line-height:125%;font-family:sans-serif;letter-spacing:2.59742999px;word-spacing:0px;fill:#000000;fill-opacity:1;stroke:none;stroke-width:1px;stroke-linecap:butt;stroke-linejoin:miter;stroke-opacity:1"
       id="text7065"
       transform="translate(-19.958241,-33.675991)">
      <path
         inkscape:connector-curvature="0"
         d="m -189.58335,233.10524 -5.31785,0 0,9.15851 -3.001,0 0,-22.6397 7.49474,0 q 3.82511,0 5.87761,1.74151 2.06805,1.74152 2.06805,5.06906 0,2.11469 -1.15064,3.68517 -1.1351,1.57047 -3.17205,2.34793 l 5.31784,9.60944 0,0.18659 -3.20314,0 -4.91356,-9.15851 z m -5.31785,-2.44123 4.58703,0 q 2.22354,0 3.52968,-1.15064 1.32169,-1.15065 1.32169,-3.07875 0,-2.09915 -1.25949,-3.2187 -1.24394,-1.11954 -3.60743,-1.13509 l -4.57148,0 0,8.58318 z"
         style="font-style:normal;font-variant:normal;font-weight:normal;font-stretch:normal;font-size:31.84485245px;line-height:125%;font-family:Roboto;-inkscape-font-specification:'Roboto, Normal';text-align:center;letter-spacing:4.90625668px;writing-mode:lr-tb;text-anchor:middle"
         id="path7072" />
      <path
         inkscape:connector-curvature="0"
         d="m -166.85766,242.57473 q -3.42083,0 -5.56663,-2.23909 -2.1458,-2.25464 -2.1458,-6.01756 l 0,-0.52867 q 0,-2.50343 0.94851,-4.46263 0.96405,-1.97476 2.67447,-3.07875 1.72596,-1.11955 3.73182,-1.11955 3.28089,0 5.10015,2.16135 1.81926,2.16134 1.81926,6.1886 l 0,1.19729 -11.3976,0 q 0.0622,2.48788 1.44608,4.02725 1.39944,1.52383 3.54523,1.52383 1.52383,0 2.58118,-0.62197 1.05734,-0.62197 1.85036,-1.64822 l 1.75706,1.36833 q -2.1147,3.24979 -6.34409,3.24979 z m -0.35763,-15.08276 q -1.74152,0 -2.92326,1.27503 -1.18174,1.25949 -1.46163,3.54523 l 8.42769,0 0,-0.21769 q -0.12439,-2.19244 -1.18174,-3.38973 -1.05735,-1.21284 -2.86106,-1.21284 z"
         style="font-style:normal;font-variant:normal;font-weight:normal;font-stretch:normal;font-size:31.84485245px;line-height:125%;font-family:Roboto;-inkscape-font-specification:'Roboto, Normal';text-align:center;letter-spacing:4.90625668px;writing-mode:lr-tb;text-anchor:middle"
         id="path7074" />
      <path
         inkscape:connector-curvature="0"
         d="m -141.69074,242.26375 q -0.24879,-0.49758 -0.40428,-1.77262 -2.00585,2.0836 -4.78917,2.0836 -2.48788,0 -4.08945,-1.39943 -1.58602,-1.41498 -1.58602,-3.57633 0,-2.62782 1.9903,-4.0739 2.00585,-1.46163 5.62883,-1.46163 l 2.79886,0 0,-1.32168 q 0,-1.50828 -0.90186,-2.39459 -0.90185,-0.90185 -2.65892,-0.90185 -1.53937,0 -2.58117,0.77746 -1.0418,0.77746 -1.0418,1.88146 l -2.89216,0 q 0,-1.25949 0.88631,-2.42568 0.90185,-1.18175 2.42568,-1.86591 1.53937,-0.68417 3.37418,-0.68417 2.90771,0 4.55593,1.46163 1.64822,1.44608 1.71042,3.99616 l 0,7.74352 q 0,2.31684 0.59087,3.68517 l 0,0.24879 -3.01655,0 z m -4.77362,-2.19245 q 1.35278,0 2.56563,-0.69971 1.21284,-0.69972 1.75706,-1.81926 l 0,-3.45194 -2.25464,0 q -5.28674,0 -5.28674,3.0943 0,1.35279 0.90185,2.1147 0.90186,0.76191 2.31684,0.76191 z"
         style="font-style:normal;font-variant:normal;font-weight:normal;font-stretch:normal;font-size:31.84485245px;line-height:125%;font-family:Roboto;-inkscape-font-specification:'Roboto, Normal';text-align:center;letter-spacing:4.90625668px;writing-mode:lr-tb;text-anchor:middle"
         id="path7076" />
      <path
         inkscape:connector-curvature="0"
         d="m -126.69302,242.26375 -2.87661,0 0,-23.88364 2.87661,0 0,23.88364 z"
         style="font-style:normal;font-variant:normal;font-weight:normal;font-stretch:normal;font-size:31.84485245px;line-height:125%;font-family:Roboto;-inkscape-font-specification:'Roboto, Normal';text-align:center;letter-spacing:4.90625668px;writing-mode:lr-tb;text-anchor:middle"
         id="path7078" />
      <path
         inkscape:connector-curvature="0"
         d="m -91.146514,231.79911 -9.811576,0 0,8.02341 11.397599,0 0,2.44123 -14.383049,0 0,-22.6397 14.227556,0 0,2.45678 -11.242106,0 0,7.27705 9.811576,0 0,2.44123 z"
         style="font-style:normal;font-variant:normal;font-weight:normal;font-stretch:normal;font-size:31.84485245px;line-height:125%;font-family:Roboto;-inkscape-font-specification:'Roboto, Normal';text-align:center;letter-spacing:4.90625668px;writing-mode:lr-tb;text-anchor:middle"
         id="path7080" />
      <path
         inkscape:connector-curvature="0"
         d="m -71.592862,237.80112 q 0,-1.1662 -0.886307,-1.80372 -0.870757,-0.65307 -3.063201,-1.11954 -2.176894,-0.46648 -3.467481,-1.11955 -1.275038,-0.65307 -1.897008,-1.55492 -0.606421,-0.90186 -0.606421,-2.1458 0,-2.06805 1.741516,-3.49858 1.757064,-1.43053 4.478182,-1.43053 2.861061,0 4.633675,1.47718 1.788163,1.47718 1.788163,3.77847 l -2.89216,0 q 0,-1.18175 -1.0107,-2.03696 -0.995152,-0.8552 -2.518978,-0.8552 -1.570474,0 -2.456781,0.68416 -0.886307,0.68417 -0.886307,1.78817 0,1.0418 0.82411,1.57047 0.82411,0.52867 2.969906,1.0107 2.161345,0.48203 3.49858,1.15064 1.337235,0.66862 1.974754,1.61713 0.653068,0.93295 0.653068,2.28573 0,2.25465 -1.803712,3.62298 -1.803712,1.35278 -4.680323,1.35278 -2.021401,0 -3.576326,-0.71526 -1.554924,-0.71527 -2.441231,-1.99031 -0.870758,-1.29058 -0.870758,-2.78331 l 2.87661,0 q 0.07775,1.44608 1.150644,2.30129 1.088448,0.83966 2.861061,0.83966 1.632671,0 2.612273,-0.65307 0.995152,-0.66862 0.995152,-1.77261 z"
         style="font-style:normal;font-variant:normal;font-weight:normal;font-stretch:normal;font-size:31.84485245px;line-height:125%;font-family:Roboto;-inkscape-font-specification:'Roboto, Normal';text-align:center;letter-spacing:4.90625668px;writing-mode:lr-tb;text-anchor:middle"
         id="path7082" />
      <path
         inkscape:connector-curvature="0"
         d="m -56.15977,221.36556 0,4.07391 3.140948,0 0,2.22354 -3.140948,0 0,10.43354 q 0,1.0107 0.41983,1.52383 0.41983,0.49757 1.43053,0.49757 0.497576,0 1.368334,-0.18659 l 0,2.33239 q -1.135095,0.31098 -2.207993,0.31098 -1.928106,0 -2.907708,-1.16619 -0.979603,-1.16619 -0.979603,-3.31199 l 0,-10.43354 -3.063201,0 0,-2.22354 3.063201,0 0,-4.07391 2.87661,0 z"
         style="font-style:normal;font-variant:normal;font-weight:normal;font-stretch:normal;font-size:31.84485245px;line-height:125%;font-family:Roboto;-inkscape-font-specification:'Roboto, Normal';text-align:center;letter-spacing:4.90625668px;writing-mode:lr-tb;text-anchor:middle"
         id="path7084" />
      <path
         inkscape:connector-curvature="0"
         d="m -34.382583,242.26375 q -0.248788,-0.49758 -0.40428,-1.77262 -2.005853,2.0836 -4.789168,2.0836 -2.487879,0 -4.089451,-1.39943 -1.586023,-1.41498 -1.586023,-3.57633 0,-2.62782 1.990304,-4.0739 2.005852,-1.46163 5.628826,-1.46163 l 2.798864,0 0,-1.32168 q 0,-1.50828 -0.901856,-2.39459 -0.901856,-0.90185 -2.658921,-0.90185 -1.539375,0 -2.581175,0.77746 -1.041799,0.77746 -1.041799,1.88146 l -2.892159,0 q 0,-1.25949 0.886307,-2.42568 0.901856,-1.18175 2.425682,-1.86591 1.539375,-0.68417 3.374186,-0.68417 2.907708,0 4.555928,1.46163 1.64822,1.44608 1.710417,3.99616 l 0,7.74352 q 0,2.31684 0.590871,3.68517 l 0,0.24879 -3.016553,0 z m -4.773618,-2.19245 q 1.352784,0 2.565625,-0.69971 1.212841,-0.69972 1.757065,-1.81926 l 0,-3.45194 -2.25464,0 q -5.286744,0 -5.286744,3.0943 0,1.35279 0.901857,2.1147 0.901856,0.76191 2.316837,0.76191 z"
         style="font-style:normal;font-variant:normal;font-weight:normal;font-stretch:normal;font-size:31.84485245px;line-height:125%;font-family:Roboto;-inkscape-font-specification:'Roboto, Normal';text-align:center;letter-spacing:4.90625668px;writing-mode:lr-tb;text-anchor:middle"
         id="path7086" />
      <path
         inkscape:connector-curvature="0"
         d="m -18.607402,221.36556 0,4.07391 3.140948,0 0,2.22354 -3.140948,0 0,10.43354 q 0,1.0107 0.41983,1.52383 0.41983,0.49757 1.430531,0.49757 0.497575,0 1.368333,-0.18659 l 0,2.33239 q -1.135095,0.31098 -2.207993,0.31098 -1.928106,0 -2.907708,-1.16619 -0.979603,-1.16619 -0.979603,-3.31199 l 0,-10.43354 -3.063201,0 0,-2.22354 3.063201,0 0,-4.07391 2.87661,0 z"
         style="font-style:normal;font-variant:normal;font-weight:normal;font-stretch:normal;font-size:31.84485245px;line-height:125%;font-family:Roboto;-inkscape-font-specification:'Roboto, Normal';text-align:center;letter-spacing:4.90625668px;writing-mode:lr-tb;text-anchor:middle"
         id="path7088" />
      <path
         inkscape:connector-curvature="0"
         d="m -0.23549928,242.57473 q -3.42083372,0 -5.56662952,-2.23909 -2.1457957,-2.25464 -2.1457957,-6.01756 l 0,-0.52867 q 0,-2.50343 0.9485039,-4.46263 0.9640532,-1.97476 2.6744701,-3.07875 1.7259661,-1.11955 3.7318186,-1.11955 3.2808906,0 5.1001521,2.16135 1.8192616,2.16134 1.8192616,6.1886 l 0,1.19729 -11.3975961,0 q 0.062197,2.48788 1.4460798,4.02725 1.3994319,1.52383 3.54522766,1.52383 1.52382594,0 2.58117454,-0.62197 1.0573486,-0.62197 1.8503601,-1.64822 l 1.7570646,1.36833 q -2.1146972,3.24979 -6.34409168,3.24979 z M -0.5931319,227.49197 q -1.7415154,0 -2.9232579,1.27503 -1.1817426,1.25949 -1.461629,3.54523 l 8.4276904,0 0,-0.21769 q -0.1243939,-2.19244 -1.1817425,-3.38973 -1.0573487,-1.21284 -2.861061,-1.21284 z"
         style="font-style:normal;font-variant:normal;font-weight:normal;font-stretch:normal;font-size:31.84485245px;line-height:125%;font-family:Roboto;-inkscape-font-specification:'Roboto, Normal';text-align:center;letter-spacing:4.90625668px;writing-mode:lr-tb;text-anchor:middle"
         id="path7090" />
      <path
         inkscape:connector-curvature="0"
         d="m -193.80615,273.20674 0,8.86307 -2.98546,0 0,-22.6397 8.34995,0 q 3.71626,0 5.81541,1.89701 2.1147,1.89701 2.1147,5.02241 0,3.29644 -2.06805,5.0846 -2.0525,1.77261 -5.89316,1.77261 l -5.33339,0 z m 0,-2.44123 5.36449,0 q 2.39458,0 3.66962,-1.11954 1.27504,-1.1351 1.27504,-3.26534 0,-2.02141 -1.27504,-3.23425 -1.27504,-1.21284 -3.49858,-1.25949 l -5.53553,0 0,8.87862 z"
         style="font-style:normal;font-variant:normal;font-weight:normal;font-stretch:normal;font-size:31.84485245px;line-height:125%;font-family:Roboto;-inkscape-font-specification:'Roboto, Normal';text-align:center;letter-spacing:2.59742999px;writing-mode:lr-tb;text-anchor:middle"
         id="path7092" />
      <path
         inkscape:connector-curvature="0"
         d="m -171.67887,267.28248 q 1.91255,-2.34793 4.97576,-2.34793 5.33339,0 5.38003,6.01755 l 0,11.11771 -2.87661,0 0,-11.13326 q -0.0155,-1.81926 -0.83966,-2.69001 -0.80856,-0.87076 -2.53452,-0.87076 -1.39943,0 -2.45678,0.74636 -1.05735,0.74637 -1.64822,1.95921 l 0,11.98846 -2.87661,0 0,-23.88364 2.87661,0 0,9.09631 z"
         style="font-style:normal;font-variant:normal;font-weight:normal;font-stretch:normal;font-size:31.84485245px;line-height:125%;font-family:Roboto;-inkscape-font-specification:'Roboto, Normal';text-align:center;letter-spacing:2.59742999px;writing-mode:lr-tb;text-anchor:middle"
         id="path7094" />
      <path
         inkscape:connector-curvature="0"
         d="m -155.18042,273.50218 q 0,-2.47233 0.96406,-4.44708 0.9796,-1.97476 2.70556,-3.04766 1.74152,-1.07289 3.96506,-1.07289 3.43638,0 5.55108,2.37903 2.13025,2.37904 2.13025,6.32854 l 0,0.20214 q 0,2.45678 -0.94851,4.41599 -0.93295,1.94365 -2.69002,3.0321 -1.74151,1.08845 -4.0117,1.08845 -3.42083,0 -5.55108,-2.37904 -2.1147,-2.37903 -2.1147,-6.29744 l 0,-0.20214 z m 2.89216,0.34208 q 0,2.79887 1.29059,4.49374 1.30614,1.69486 3.48303,1.69486 2.19244,0 3.48303,-1.71041 1.29059,-1.72597 1.29059,-4.82027 0,-2.76777 -1.32169,-4.47818 -1.30613,-1.72597 -3.48303,-1.72597 -2.13025,0 -3.43638,1.69487 -1.30614,1.69487 -1.30614,4.85136 z"
         style="font-style:normal;font-variant:normal;font-weight:normal;font-stretch:normal;font-size:31.84485245px;line-height:125%;font-family:Roboto;-inkscape-font-specification:'Roboto, Normal';text-align:center;letter-spacing:2.59742999px;writing-mode:lr-tb;text-anchor:middle"
         id="path7096" />
      <path
         inkscape:connector-curvature="0"
         d="m -129.7567,261.17163 0,4.0739 3.14095,0 0,2.22354 -3.14095,0 0,10.43355 q 0,1.0107 0.41983,1.52382 0.41983,0.49758 1.43053,0.49758 0.49758,0 1.36834,-0.18659 l 0,2.33238 q -1.1351,0.31099 -2.20799,0.31099 -1.92811,0 -2.90771,-1.16619 -0.97961,-1.1662 -0.97961,-3.31199 l 0,-10.43355 -3.0632,0 0,-2.22354 3.0632,0 0,-4.0739 2.87661,0 z"
         style="font-style:normal;font-variant:normal;font-weight:normal;font-stretch:normal;font-size:31.84485245px;line-height:125%;font-family:Roboto;-inkscape-font-specification:'Roboto, Normal';text-align:center;letter-spacing:2.59742999px;writing-mode:lr-tb;text-anchor:middle"
         id="path7098" />
      <path
         inkscape:connector-curvature="0"
         d="m -121.74813,273.50218 q 0,-2.47233 0.96405,-4.44708 0.9796,-1.97476 2.70557,-3.04766 1.74151,-1.07289 3.96506,-1.07289 3.43638,0 5.55108,2.37903 2.13024,2.37904 2.13024,6.32854 l 0,0.20214 q 0,2.45678 -0.9485,4.41599 -0.93296,1.94365 -2.69002,3.0321 -1.74152,1.08845 -4.01171,1.08845 -3.42083,0 -5.55108,-2.37904 -2.11469,-2.37903 -2.11469,-6.29744 l 0,-0.20214 z m 2.89216,0.34208 q 0,2.79887 1.29058,4.49374 1.30614,1.69486 3.48303,1.69486 2.19245,0 3.48304,-1.71041 1.29058,-1.72597 1.29058,-4.82027 0,-2.76777 -1.32168,-4.47818 -1.30614,-1.72597 -3.48303,-1.72597 -2.13025,0 -3.43639,1.69487 -1.30613,1.69487 -1.30613,4.85136 z"
         style="font-style:normal;font-variant:normal;font-weight:normal;font-stretch:normal;font-size:31.84485245px;line-height:125%;font-family:Roboto;-inkscape-font-specification:'Roboto, Normal';text-align:center;letter-spacing:2.59742999px;writing-mode:lr-tb;text-anchor:middle"
         id="path7100" />
      <path
         inkscape:connector-curvature="0"
         d="m -100.91144,273.51773 q 0,-3.93396 1.819264,-6.2508 1.819262,-2.33238 4.820266,-2.33238 3.07875,0 4.804717,2.17689 l 0.139943,-1.86591 2.627822,0 0,16.42 q 0,3.26534 -1.943655,5.1468 -1.928107,1.88146 -5.193448,1.88146 -1.819262,0 -3.560777,-0.77746 -1.741515,-0.77746 -2.658922,-2.13025 l 1.492729,-1.72596 q 1.85036,2.28574 4.52483,2.28574 2.099148,0 3.265341,-1.18175 1.181743,-1.18174 1.181743,-3.32753 l 0,-1.44608 q -1.725966,1.9903 -4.711421,1.9903 -2.954357,0 -4.789168,-2.37904 -1.819264,-2.37903 -1.819264,-6.48403 z m 2.892162,0.32653 q 0,2.84552 1.166194,4.47819 1.166193,1.61712 3.265341,1.61712 2.721118,0 3.996156,-2.47233 l 0,-7.68133 q -1.321686,-2.41013 -3.965058,-2.41013 -2.099148,0 -3.28089,1.63267 -1.181743,1.63267 -1.181743,4.83581 z"
         style="font-style:normal;font-variant:normal;font-weight:normal;font-stretch:normal;font-size:31.84485245px;line-height:125%;font-family:Roboto;-inkscape-font-specification:'Roboto, Normal';text-align:center;letter-spacing:2.59742999px;writing-mode:lr-tb;text-anchor:middle"
         id="path7102" />
      <path
         inkscape:connector-curvature="0"
         d="m -71.647048,267.82671 q -0.653068,-0.10885 -1.414981,-0.10885 -2.829963,0 -3.840664,2.41013 l 0,11.94182 -2.87661,0 0,-16.82428 2.798864,0 0.04665,1.94366 q 1.414981,-2.25464 4.011705,-2.25464 0.839659,0 1.275038,0.21769 l 0,2.67447 z"
         style="font-style:normal;font-variant:normal;font-weight:normal;font-stretch:normal;font-size:31.84485245px;line-height:125%;font-family:Roboto;-inkscape-font-specification:'Roboto, Normal';text-align:center;letter-spacing:2.59742999px;writing-mode:lr-tb;text-anchor:middle"
         id="path7104" />
      <path
         inkscape:connector-curvature="0"
         d="m -56.656881,282.06981 q -0.248788,-0.49757 -0.40428,-1.77261 -2.005853,2.0836 -4.789167,2.0836 -2.487879,0 -4.089452,-1.39943 -1.586023,-1.41498 -1.586023,-3.57633 0,-2.62782 1.990304,-4.0739 2.005852,-1.46163 5.628826,-1.46163 l 2.798864,0 0,-1.32169 q 0,-1.50827 -0.901856,-2.39458 -0.901856,-0.90186 -2.658921,-0.90186 -1.539375,0 -2.581174,0.77747 -1.0418,0.77746 -1.0418,1.88145 l -2.892159,0 q 0,-1.25948 0.886307,-2.42568 0.901856,-1.18174 2.425682,-1.86591 1.539375,-0.68416 3.374186,-0.68416 2.907709,0 4.555929,1.46163 1.648219,1.44608 1.710416,3.99615 l 0,7.74352 q 0,2.31684 0.590872,3.68518 l 0,0.24878 -3.016554,0 z m -4.773618,-2.19244 q 1.352785,0 2.565626,-0.69972 1.212841,-0.69971 1.757064,-1.81926 l 0,-3.45193 -2.25464,0 q -5.286743,0 -5.286743,3.0943 0,1.35278 0.901856,2.1147 0.901856,0.76191 2.316837,0.76191 z"
         style="font-style:normal;font-variant:normal;font-weight:normal;font-stretch:normal;font-size:31.84485245px;line-height:125%;font-family:Roboto;-inkscape-font-specification:'Roboto, Normal';text-align:center;letter-spacing:2.59742999px;writing-mode:lr-tb;text-anchor:middle"
         id="path7106" />
      <path
         inkscape:connector-curvature="0"
         d="m -32.881373,273.84426 q 0,3.84067 -1.757065,6.1886 -1.757064,2.34794 -4.758068,2.34794 -3.063201,0 -4.820266,-1.94366 l 0,8.10116 -2.87661,0 0,-23.29277 2.627822,0 0.139943,1.86591 q 1.757065,-2.17689 4.882463,-2.17689 3.032103,0 4.789167,2.28574 1.772614,2.28573 1.772614,6.35964 l 0,0.26433 z m -2.87661,-0.32653 q 0,-2.84551 -1.212841,-4.49373 -1.212841,-1.64822 -3.327538,-1.64822 -2.612274,0 -3.91841,2.31684 l 0,8.03895 q 1.290587,2.30129 3.949508,2.30129 2.06805,0 3.280891,-1.63267 1.22839,-1.64822 1.22839,-4.88246 z"
         style="font-style:normal;font-variant:normal;font-weight:normal;font-stretch:normal;font-size:31.84485245px;line-height:125%;font-family:Roboto;-inkscape-font-specification:'Roboto, Normal';text-align:center;letter-spacing:2.59742999px;writing-mode:lr-tb;text-anchor:middle"
         id="path7108" />
      <path
         inkscape:connector-curvature="0"
         d="m -23.768805,267.28248 q 1.912558,-2.34793 4.975759,-2.34793 5.33339,0 5.380038,6.01755 l 0,11.11771 -2.87661,0 0,-11.13326 q -0.01555,-1.81926 -0.839659,-2.69001 -0.808561,-0.87076 -2.534527,-0.87076 -1.399432,0 -2.456781,0.74636 -1.057348,0.74637 -1.64822,1.95921 l 0,11.98846 -2.87661,0 0,-23.88364 2.87661,0 0,9.09631 z"
         style="font-style:normal;font-variant:normal;font-weight:normal;font-stretch:normal;font-size:31.84485245px;line-height:125%;font-family:Roboto;-inkscape-font-specification:'Roboto, Normal';text-align:center;letter-spacing:2.59742999px;writing-mode:lr-tb;text-anchor:middle"
         id="path7110" />
      <path
         inkscape:connector-curvature="0"
         d="m -1.0040041,277.85597 3.9184096,-12.61044 3.0787504,0 -6.76392131,19.42101 q -1.57047369,4.19829 -4.99130749,4.19829 l -0.5442235,-0.0466 -1.0728979,-0.20214 0,-2.33239 0.7774623,0.0622 q 1.4616289,0 2.2701896,-0.59088 0.82411,-0.59087 1.3527843,-2.16134 l 0.637519,-1.71042 -6.0020083,-16.63769 3.1409473,0 4.198296,12.61044 z"
         style="font-style:normal;font-variant:normal;font-weight:normal;font-stretch:normal;font-size:31.84485245px;line-height:125%;font-family:Roboto;-inkscape-font-specification:'Roboto, Normal';text-align:center;letter-spacing:2.59742999px;writing-mode:lr-tb;text-anchor:middle"
         id="path7112" />
    </g>
  </g>
</svg>
