<?xml version="1.0" encoding="UTF-8" standalone="no"?>
<!-- Created with Inkscape (http://www.inkscape.org/) -->

<svg
   xmlns:dc="http://purl.org/dc/elements/1.1/"
   xmlns:cc="http://creativecommons.org/ns#"
   xmlns:rdf="http://www.w3.org/1999/02/22-rdf-syntax-ns#"
   xmlns:svg="http://www.w3.org/2000/svg"
   xmlns="http://www.w3.org/2000/svg"
   xmlns:sodipodi="http://sodipodi.sourceforge.net/DTD/sodipodi-0.dtd"
   xmlns:inkscape="http://www.inkscape.org/namespaces/inkscape"
   width="85.393349mm"
   height="110.65038mm"
   viewBox="0 0 85.39335 110.65037"
   version="1.1"
   id="svg8"
   inkscape:version="0.92.1 r"
   sodipodi:docname="Shaggy.svg">
  <defs
     id="defs2">
    <inkscape:path-effect
       effect="skeletal"
       id="path-effect7607"
       is_visible="true"
       pattern="M 0,5 C 0,2.24 2.24,0 5,0 7.76,0 10,2.24 10,5 10,7.76 7.76,10 5,10 2.24,10 0,7.76 0,5 Z"
       copytype="single_stretched"
       prop_scale="0.26458333"
       scale_y_rel="false"
       spacing="0"
       normal_offset="0"
       tang_offset="0"
       prop_units="false"
       vertical_pattern="false"
       fuse_tolerance="0" />
    <inkscape:path-effect
       effect="skeletal"
       id="path-effect7603"
       is_visible="true"
       pattern="M 0,5 C 0,2.24 2.24,0 5,0 7.76,0 10,2.24 10,5 10,7.76 7.76,10 5,10 2.24,10 0,7.76 0,5 Z"
       copytype="single_stretched"
       prop_scale="0.26458333"
       scale_y_rel="false"
       spacing="0"
       normal_offset="0"
       tang_offset="0"
       prop_units="false"
       vertical_pattern="false"
       fuse_tolerance="0" />
    <inkscape:path-effect
       effect="skeletal"
       id="path-effect7599"
       is_visible="true"
       pattern="M 0,5 C 0,2.24 2.24,0 5,0 7.76,0 10,2.24 10,5 10,7.76 7.76,10 5,10 2.24,10 0,7.76 0,5 Z"
       copytype="single_stretched"
       prop_scale="0.26458333"
       scale_y_rel="false"
       spacing="0"
       normal_offset="0"
       tang_offset="0"
       prop_units="false"
       vertical_pattern="false"
       fuse_tolerance="0" />
    <inkscape:path-effect
       effect="skeletal"
       id="path-effect7595"
       is_visible="true"
       pattern="M 0,5 C 0,2.24 2.24,0 5,0 7.76,0 10,2.24 10,5 10,7.76 7.76,10 5,10 2.24,10 0,7.76 0,5 Z"
       copytype="single_stretched"
       prop_scale="0.26458333"
       scale_y_rel="false"
       spacing="0"
       normal_offset="0"
       tang_offset="0"
       prop_units="false"
       vertical_pattern="false"
       fuse_tolerance="0" />
    <inkscape:path-effect
       effect="skeletal"
       id="path-effect7591"
       is_visible="true"
       pattern="M 0,5 C 0,2.24 2.24,0 5,0 7.76,0 10,2.24 10,5 10,7.76 7.76,10 5,10 2.24,10 0,7.76 0,5 Z"
       copytype="single_stretched"
       prop_scale="0.26458333"
       scale_y_rel="false"
       spacing="0"
       normal_offset="0"
       tang_offset="0"
       prop_units="false"
       vertical_pattern="false"
       fuse_tolerance="0" />
    <inkscape:path-effect
       effect="skeletal"
       id="path-effect7587"
       is_visible="true"
       pattern="M 0,5 C 0,2.24 2.24,0 5,0 7.76,0 10,2.24 10,5 10,7.76 7.76,10 5,10 2.24,10 0,7.76 0,5 Z"
       copytype="single_stretched"
       prop_scale="0.26458333"
       scale_y_rel="false"
       spacing="0"
       normal_offset="0"
       tang_offset="0"
       prop_units="false"
       vertical_pattern="false"
       fuse_tolerance="0" />
    <inkscape:path-effect
       effect="skeletal"
       id="path-effect7583"
       is_visible="true"
       pattern="M 0,5 C 0,2.24 2.24,0 5,0 7.76,0 10,2.24 10,5 10,7.76 7.76,10 5,10 2.24,10 0,7.76 0,5 Z"
       copytype="single_stretched"
       prop_scale="0.26458333"
       scale_y_rel="false"
       spacing="0"
       normal_offset="0"
       tang_offset="0"
       prop_units="false"
       vertical_pattern="false"
       fuse_tolerance="0" />
    <inkscape:path-effect
       effect="skeletal"
       id="path-effect7579"
       is_visible="true"
       pattern="M 0,5 C 0,2.24 2.24,0 5,0 7.76,0 10,2.24 10,5 10,7.76 7.76,10 5,10 2.24,10 0,7.76 0,5 Z"
       copytype="single_stretched"
       prop_scale="0.26458333"
       scale_y_rel="false"
       spacing="0"
       normal_offset="0"
       tang_offset="0"
       prop_units="false"
       vertical_pattern="false"
       fuse_tolerance="0" />
    <inkscape:path-effect
       effect="skeletal"
       id="path-effect7575"
       is_visible="true"
       pattern="M 0,5 C 0,2.24 2.24,0 5,0 7.76,0 10,2.24 10,5 10,7.76 7.76,10 5,10 2.24,10 0,7.76 0,5 Z"
       copytype="single_stretched"
       prop_scale="0.26458333"
       scale_y_rel="false"
       spacing="0"
       normal_offset="0"
       tang_offset="0"
       prop_units="false"
       vertical_pattern="false"
       fuse_tolerance="0" />
    <inkscape:path-effect
       effect="skeletal"
       id="path-effect7571"
       is_visible="true"
       pattern="M 0,5 C 0,2.24 2.24,0 5,0 7.76,0 10,2.24 10,5 10,7.76 7.76,10 5,10 2.24,10 0,7.76 0,5 Z"
       copytype="single_stretched"
       prop_scale="0.49493927"
       scale_y_rel="false"
       spacing="0"
       normal_offset="0"
       tang_offset="0"
       prop_units="false"
       vertical_pattern="false"
       fuse_tolerance="0" />
    <inkscape:path-effect
       effect="skeletal"
       id="path-effect7563"
       is_visible="true"
       pattern="M 0,5 C 0,2.24 2.24,0 5,0 7.76,0 10,2.24 10,5 10,7.76 7.76,10 5,10 2.24,10 0,7.76 0,5 Z"
       copytype="single_stretched"
       prop_scale="0.25250506"
       scale_y_rel="false"
       spacing="0"
       normal_offset="0"
       tang_offset="0"
       prop_units="false"
       vertical_pattern="false"
       fuse_tolerance="0" />
    <inkscape:path-effect
       effect="skeletal"
       id="path-effect7536"
       is_visible="true"
       pattern="M 0,5 C 0,2.24 2.24,0 5,0 7.76,0 10,2.24 10,5 10,7.76 7.76,10 5,10 2.24,10 0,7.76 0,5 Z"
       copytype="single_stretched"
       prop_scale="0.26458335"
       scale_y_rel="false"
       spacing="0"
       normal_offset="0"
       tang_offset="0"
       prop_units="false"
       vertical_pattern="false"
       fuse_tolerance="0" />
    <inkscape:path-effect
       effect="skeletal"
       id="path-effect7532"
       is_visible="true"
       pattern="M 0,5 C 0,2.24 2.24,0 5,0 7.76,0 10,2.24 10,5 10,7.76 7.76,10 5,10 2.24,10 0,7.76 0,5 Z"
       copytype="single_stretched"
       prop_scale="0.15233015"
       scale_y_rel="false"
       spacing="0"
       normal_offset="0"
       tang_offset="0"
       prop_units="false"
       vertical_pattern="false"
       fuse_tolerance="0" />
    <inkscape:path-effect
       effect="skeletal"
       id="path-effect7528"
       is_visible="true"
       pattern="M 0,5 C 0,2.24 2.24,0 5,0 7.76,0 10,2.24 10,5 10,7.76 7.76,10 5,10 2.24,10 0,7.76 0,5 Z"
       copytype="single_stretched"
       prop_scale="0.16733721"
       scale_y_rel="false"
       spacing="0"
       normal_offset="0"
       tang_offset="0"
       prop_units="false"
       vertical_pattern="false"
       fuse_tolerance="0" />
    <inkscape:path-effect
       effect="skeletal"
       id="path-effect7524"
       is_visible="true"
       pattern="M 0,5 C 0,2.24 2.24,0 5,0 7.76,0 10,2.24 10,5 10,7.76 7.76,10 5,10 2.24,10 0,7.76 0,5 Z"
       copytype="single_stretched"
       prop_scale="0.16733721"
       scale_y_rel="false"
       spacing="0"
       normal_offset="0"
       tang_offset="0"
       prop_units="false"
       vertical_pattern="false"
       fuse_tolerance="0" />
    <inkscape:path-effect
       effect="skeletal"
       id="path-effect7520"
       is_visible="true"
       pattern="M 0,5 C 0,2.24 2.24,0 5,0 7.76,0 10,2.24 10,5 10,7.76 7.76,10 5,10 2.24,10 0,7.76 0,5 Z"
       copytype="single_stretched"
       prop_scale="0.11832528"
       scale_y_rel="false"
       spacing="0"
       normal_offset="0"
       tang_offset="0"
       prop_units="false"
       vertical_pattern="false"
       fuse_tolerance="0" />
    <inkscape:path-effect
       effect="skeletal"
       id="path-effect7516"
       is_visible="true"
       pattern="M 0,5 C 0,2.24 2.24,0 5,0 7.76,0 10,2.24 10,5 10,7.76 7.76,10 5,10 2.24,10 0,7.76 0,5 Z"
       copytype="single_stretched"
       prop_scale="0.16733721"
       scale_y_rel="false"
       spacing="0"
       normal_offset="0"
       tang_offset="0"
       prop_units="false"
       vertical_pattern="false"
       fuse_tolerance="0" />
    <inkscape:path-effect
       effect="skeletal"
       id="path-effect7512"
       is_visible="true"
       pattern="M 0,5 C 0,2.24 2.24,0 5,0 7.76,0 10,2.24 10,5 10,7.76 7.76,10 5,10 2.24,10 0,7.76 0,5 Z"
       copytype="single_stretched"
       prop_scale="0.15875002"
       scale_y_rel="false"
       spacing="0"
       normal_offset="0"
       tang_offset="0"
       prop_units="false"
       vertical_pattern="false"
       fuse_tolerance="0" />
    <inkscape:path-effect
       effect="skeletal"
       id="path-effect7489"
       is_visible="true"
       pattern="m 0,57.91667 c 0,-2.760001 2.24,-5.000001 5,-5.000001 2.76,0 5,2.24 5,5.000001 0,2.76 -2.24,5 -5,5 -2.76,0 -5,-2.24 -5,-5 z"
       copytype="single_stretched"
       prop_scale="0.15233015"
       scale_y_rel="false"
       spacing="0"
       normal_offset="0"
       tang_offset="0"
       prop_units="false"
       vertical_pattern="false"
       fuse_tolerance="0" />
    <inkscape:path-effect
       effect="skeletal"
       id="path-effect7485"
       is_visible="true"
       pattern="M 0,5 C 0,2.24 2.24,0 5,0 7.76,0 10,2.24 10,5 10,7.76 7.76,10 5,10 2.24,10 0,7.76 0,5 Z"
       copytype="single_stretched"
       prop_scale="0.26458335"
       scale_y_rel="false"
       spacing="0"
       normal_offset="0"
       tang_offset="0"
       prop_units="false"
       vertical_pattern="false"
       fuse_tolerance="0" />
    <inkscape:path-effect
       effect="skeletal"
       id="path-effect7481"
       is_visible="true"
       pattern="m 0,52.625003 c 0,-2.760001 2.24,-5.000001 5,-5.000001 2.76,0 5,2.24 5,5.000001 0,2.76 -2.24,5 -5,5 -2.76,0 -5,-2.24 -5,-5 z"
       copytype="single_stretched"
       prop_scale="0.16971983"
       scale_y_rel="false"
       spacing="0"
       normal_offset="0"
       tang_offset="0"
       prop_units="false"
       vertical_pattern="false"
       fuse_tolerance="0" />
    <inkscape:path-effect
       effect="skeletal"
       id="path-effect7477"
       is_visible="true"
       pattern="M 0,5 C 0,2.24 2.24,0 5,0 7.76,0 10,2.24 10,5 10,7.76 7.76,10 5,10 2.24,10 0,7.76 0,5 Z"
       copytype="single_stretched"
       prop_scale="0.14419458"
       scale_y_rel="false"
       spacing="0"
       normal_offset="0"
       tang_offset="0"
       prop_units="false"
       vertical_pattern="false"
       fuse_tolerance="0" />
    <inkscape:path-effect
       effect="skeletal"
       id="path-effect7473"
       is_visible="true"
       pattern="M 0,5 C 0,2.24 2.24,0 5,0 7.76,0 10,2.24 10,5 10,7.76 7.76,10 5,10 2.24,10 0,7.76 0,5 Z"
       copytype="single_stretched"
       prop_scale="0.1424825"
       scale_y_rel="false"
       spacing="0"
       normal_offset="0"
       tang_offset="0"
       prop_units="false"
       vertical_pattern="false"
       fuse_tolerance="0" />
    <inkscape:path-effect
       effect="skeletal"
       id="path-effect7469"
       is_visible="true"
       pattern="M 0,5 C 0,2.24 2.24,0 5,0 7.76,0 10,2.24 10,5 10,7.76 7.76,10 5,10 2.24,10 0,7.76 0,5 Z"
       copytype="single_stretched"
       prop_scale="0.16733721"
       scale_y_rel="false"
       spacing="0"
       normal_offset="0"
       tang_offset="0"
       prop_units="false"
       vertical_pattern="false"
       fuse_tolerance="0" />
    <inkscape:path-effect
       effect="skeletal"
       id="path-effect7465"
       is_visible="true"
       pattern="M 0,5 C 0,2.24 2.24,0 5,0 7.76,0 10,2.24 10,5 10,7.76 7.76,10 5,10 2.24,10 0,7.76 0,5 Z"
       copytype="single_stretched"
       prop_scale="0.15427728"
       scale_y_rel="false"
       spacing="0"
       normal_offset="0"
       tang_offset="0"
       prop_units="false"
       vertical_pattern="false"
       fuse_tolerance="0" />
    <inkscape:path-effect
       effect="skeletal"
       id="path-effect7461"
       is_visible="true"
       pattern="M 0,5 C 0,2.24 2.24,0 5,0 7.76,0 10,2.24 10,5 10,7.76 7.76,10 5,10 2.24,10 0,7.76 0,5 Z"
       copytype="single_stretched"
       prop_scale="0.26458335"
       scale_y_rel="false"
       spacing="0"
       normal_offset="0"
       tang_offset="0"
       prop_units="false"
       vertical_pattern="false"
       fuse_tolerance="0" />
    <inkscape:path-effect
       effect="skeletal"
       id="path-effect7457"
       is_visible="true"
       pattern="M 0,5 C 0,2.24 2.24,0 5,0 7.76,0 10,2.24 10,5 10,7.76 7.76,10 5,10 2.24,10 0,7.76 0,5 Z"
       copytype="single_stretched"
       prop_scale="0.26458335"
       scale_y_rel="false"
       spacing="0"
       normal_offset="0"
       tang_offset="0"
       prop_units="false"
       vertical_pattern="false"
       fuse_tolerance="0" />
    <inkscape:path-effect
       effect="skeletal"
       id="path-effect7453"
       is_visible="true"
       pattern="M 0,5 C 0,2.24 2.24,0 5,0 7.76,0 10,2.24 10,5 10,7.76 7.76,10 5,10 2.24,10 0,7.76 0,5 Z"
       copytype="single_stretched"
       prop_scale="0.26458335"
       scale_y_rel="false"
       spacing="0"
       normal_offset="0"
       tang_offset="0"
       prop_units="false"
       vertical_pattern="false"
       fuse_tolerance="0" />
    <inkscape:path-effect
       effect="skeletal"
       id="path-effect7449"
       is_visible="true"
       pattern="M 0,5 C 0,2.24 2.24,0 5,0 7.76,0 10,2.24 10,5 10,7.76 7.76,10 5,10 2.24,10 0,7.76 0,5 Z"
       copytype="single_stretched"
       prop_scale="0.26458335"
       scale_y_rel="false"
       spacing="0"
       normal_offset="0"
       tang_offset="0"
       prop_units="false"
       vertical_pattern="false"
       fuse_tolerance="0" />
    <inkscape:path-effect
       effect="skeletal"
       id="path-effect7445"
       is_visible="true"
       pattern="M 0,5 C 0,2.24 2.24,0 5,0 7.76,0 10,2.24 10,5 10,7.76 7.76,10 5,10 2.24,10 0,7.76 0,5 Z"
       copytype="single_stretched"
       prop_scale="0.26458335"
       scale_y_rel="false"
       spacing="0"
       normal_offset="0"
       tang_offset="0"
       prop_units="false"
       vertical_pattern="false"
       fuse_tolerance="0" />
    <inkscape:path-effect
       effect="skeletal"
       id="path-effect7441"
       is_visible="true"
       pattern="M 0,5 C 0,2.24 2.24,0 5,0 7.76,0 10,2.24 10,5 10,7.76 7.76,10 5,10 2.24,10 0,7.76 0,5 Z"
       copytype="single_stretched"
       prop_scale="0.12085094"
       scale_y_rel="false"
       spacing="0"
       normal_offset="0"
       tang_offset="0"
       prop_units="false"
       vertical_pattern="false"
       fuse_tolerance="0" />
    <inkscape:path-effect
       effect="skeletal"
       id="path-effect7437"
       is_visible="true"
       pattern="M 0,5 C 0,2.24 2.24,0 5,0 7.76,0 10,2.24 10,5 10,7.76 7.76,10 5,10 2.24,10 0,7.76 0,5 Z"
       copytype="single_stretched"
       prop_scale="0.13620262"
       scale_y_rel="false"
       spacing="0"
       normal_offset="0"
       tang_offset="0"
       prop_units="false"
       vertical_pattern="false"
       fuse_tolerance="0" />
    <inkscape:path-effect
       effect="skeletal"
       id="path-effect7433"
       is_visible="true"
       pattern="M 0,5 C 0,2.24 2.24,0 5,0 7.76,0 10,2.24 10,5 10,7.76 7.76,10 5,10 2.24,10 0,7.76 0,5 Z"
       copytype="single_stretched"
       prop_scale="0.12196691"
       scale_y_rel="false"
       spacing="0"
       normal_offset="0"
       tang_offset="0"
       prop_units="false"
       vertical_pattern="false"
       fuse_tolerance="0" />
    <inkscape:path-effect
       effect="skeletal"
       id="path-effect7429"
       is_visible="true"
       pattern="M 0,5 C 0,2.24 2.24,0 5,0 7.76,0 10,2.24 10,5 10,7.76 7.76,10 5,10 2.24,10 0,7.76 0,5 Z"
       copytype="single_stretched"
       prop_scale="0.11906252"
       scale_y_rel="false"
       spacing="0"
       normal_offset="0"
       tang_offset="0"
       prop_units="false"
       vertical_pattern="false"
       fuse_tolerance="0" />
    <inkscape:path-effect
       effect="skeletal"
       id="path-effect7425"
       is_visible="true"
       pattern="M 0,5 C 0,2.24 2.24,0 5,0 7.76,0 10,2.24 10,5 10,7.76 7.76,10 5,10 2.24,10 0,7.76 0,5 Z"
       copytype="single_stretched"
       prop_scale="0.13492468"
       scale_y_rel="false"
       spacing="0"
       normal_offset="0"
       tang_offset="0"
       prop_units="false"
       vertical_pattern="false"
       fuse_tolerance="0" />
    <inkscape:path-effect
       effect="skeletal"
       id="path-effect7421"
       is_visible="true"
       pattern="M 0,5 C 0,2.24 2.24,0 5,0 7.76,0 10,2.24 10,5 10,7.76 7.76,10 5,10 2.24,10 0,7.76 0,5 Z"
       copytype="single_stretched"
       prop_scale="0.1278869"
       scale_y_rel="false"
       spacing="0"
       normal_offset="0"
       tang_offset="0"
       prop_units="false"
       vertical_pattern="false"
       fuse_tolerance="0" />
    <inkscape:path-effect
       effect="skeletal"
       id="path-effect7417"
       is_visible="true"
       pattern="M 0,5 C 0,2.24 2.24,0 5,0 7.76,0 10,2.24 10,5 10,7.76 7.76,10 5,10 2.24,10 0,7.76 0,5 Z"
       copytype="single_stretched"
       prop_scale="0.1278869"
       scale_y_rel="false"
       spacing="0"
       normal_offset="0"
       tang_offset="0"
       prop_units="false"
       vertical_pattern="false"
       fuse_tolerance="0" />
    <inkscape:path-effect
       effect="skeletal"
       id="path-effect7413"
       is_visible="true"
       pattern="M 0,5 C 0,2.24 2.24,0 5,0 7.76,0 10,2.24 10,5 10,7.76 7.76,10 5,10 2.24,10 0,7.76 0,5 Z"
       copytype="single_stretched"
       prop_scale="0.26458335"
       scale_y_rel="false"
       spacing="0"
       normal_offset="0"
       tang_offset="0"
       prop_units="false"
       vertical_pattern="false"
       fuse_tolerance="0" />
    <inkscape:path-effect
       effect="skeletal"
       id="path-effect7409"
       is_visible="true"
       pattern="M 0,5 C 0,2.24 2.24,0 5,0 7.76,0 10,2.24 10,5 10,7.76 7.76,10 5,10 2.24,10 0,7.76 0,5 Z"
       copytype="single_stretched"
       prop_scale="0.26458335"
       scale_y_rel="false"
       spacing="0"
       normal_offset="0"
       tang_offset="0"
       prop_units="false"
       vertical_pattern="false"
       fuse_tolerance="0" />
    <inkscape:path-effect
       effect="skeletal"
       id="path-effect7405"
       is_visible="true"
       pattern="M 0,5 C 0,2.24 2.24,0 5,0 7.76,0 10,2.24 10,5 10,7.76 7.76,10 5,10 2.24,10 0,7.76 0,5 Z"
       copytype="single_stretched"
       prop_scale="0.14493047"
       scale_y_rel="false"
       spacing="0"
       normal_offset="0"
       tang_offset="0"
       prop_units="false"
       vertical_pattern="false"
       fuse_tolerance="0" />
    <inkscape:path-effect
       effect="skeletal"
       id="path-effect7401"
       is_visible="true"
       pattern="M 0,5 C 0,2.24 2.24,0 5,0 7.76,0 10,2.24 10,5 10,7.76 7.76,10 5,10 2.24,10 0,7.76 0,5 Z"
       copytype="single_stretched"
       prop_scale="0.15315023"
       scale_y_rel="false"
       spacing="0"
       normal_offset="0"
       tang_offset="0"
       prop_units="false"
       vertical_pattern="false"
       fuse_tolerance="0" />
    <inkscape:path-effect
       effect="skeletal"
       id="path-effect7397"
       is_visible="true"
       pattern="M 0,5 C 0,2.24 2.24,0 5,0 7.76,0 10,2.24 10,5 10,7.76 7.76,10 5,10 2.24,10 0,7.76 0,5 Z"
       copytype="single_stretched"
       prop_scale="0.10322407"
       scale_y_rel="false"
       spacing="0"
       normal_offset="0"
       tang_offset="0"
       prop_units="false"
       vertical_pattern="false"
       fuse_tolerance="0" />
  </defs>
  <sodipodi:namedview
     id="base"
     pagecolor="#ffffff"
     bordercolor="#666666"
     borderopacity="1.0"
     inkscape:pageopacity="0.0"
     inkscape:pageshadow="2"
     inkscape:zoom="1"
     inkscape:cx="116.19879"
     inkscape:cy="210.6003"
     inkscape:document-units="mm"
     inkscape:current-layer="layer1"
     showgrid="false"
     inkscape:pagecheckerboard="true"
     inkscape:showpageshadow="false"
     showborder="false"
     fit-margin-top="0"
     fit-margin-left="0"
     fit-margin-right="0"
     fit-margin-bottom="0"
     inkscape:window-width="1366"
     inkscape:window-height="697"
     inkscape:window-x="0"
     inkscape:window-y="29"
     inkscape:window-maximized="1"
     inkscape:object-nodes="false" />
  <metadata
     id="metadata5">
    <rdf:RDF>
      <cc:Work
         rdf:about="">
        <dc:format>image/svg+xml</dc:format>
        <dc:type
           rdf:resource="http://purl.org/dc/dcmitype/StillImage" />
        <dc:title></dc:title>
      </cc:Work>
    </rdf:RDF>
  </metadata>
  <g
     inkscape:label="Layer 1"
     inkscape:groupmode="layer"
     id="layer1"
     transform="translate(127.67852,-108.45261)">
    <path
       style="opacity:1;fill:#000000;fill-opacity:1;stroke:none;stroke-width:2.11666656;stroke-linecap:round;stroke-linejoin:round;stroke-miterlimit:4;stroke-dasharray:none;stroke-opacity:1"
       d="m -106.42942,128.52864 c 0.001,0.008 -0.002,0.0171 -0.009,0.0268 0,0 0,0 0,0 -0.007,0.009 -0.0176,0.0186 -0.032,0.0289 -0.0286,0.0204 -0.0721,0.0433 -0.12949,0.0687 l 0,0 0,0 0,0 c -0.11334,0.0502 -0.2836,0.1113 -0.50176,0.18276 l 0,0 c -0.41654,0.13644 -1.06918,0.32959 -1.82771,0.56061 l 0,0 c -1.47847,0.45042 -3.52863,1.09134 -5.77118,2.01177 -0.82833,0.34073 -1.69023,0.72021 -2.55148,1.14573 -1.44051,0.7117 -2.69579,1.46172 -3.81361,2.27764 0,0 0,1e-5 0,1e-5 -3.27592,2.4042 -4.43324,5.18217 -4.63395,5.10958 -0.22472,-0.0813 0.51751,-3.09585 4.05951,-5.86695 0,0 0,0 0,0 1.13803,-0.895 2.44249,-1.71011 3.93008,-2.44638 0.89208,-0.44154 1.78257,-0.82139 2.63975,-1.15025 2.32443,-0.89379 4.44327,-1.42357 5.98459,-1.71617 l 0,0 c 0.80739,-0.15334 1.4548,-0.24057 1.91406,-0.27648 l 0,0 c 0.23225,-0.0182 0.41279,-0.0228 0.53865,-0.0154 l 0,0 0,0 0,0 c 0.0631,0.004 0.11193,0.0105 0.14605,0.0201 0.0171,0.005 0.0304,0.0104 0.04,0.0167 0,0 0,0 0,0 0.0102,0.007 0.016,0.0141 0.0174,0.0224 z"
       id="path7395"
       inkscape:connector-curvature="0"
       inkscape:path-effect="#path-effect7397"
       inkscape:original-d="m -106.42937,128.52863 c 0,0 -16.08963,2.61924 -19.27014,11.41241" />
    <path
       style="opacity:1;fill:#000000;fill-opacity:1;stroke:none;stroke-width:2.11666656;stroke-linecap:round;stroke-linejoin:round;stroke-miterlimit:4;stroke-dasharray:none;stroke-opacity:1"
       d="m -124.76404,146.11498 c 0.005,-0.007 0.0149,-0.0108 0.03,-0.0109 0.0144,-7e-5 0.0335,0.003 0.0572,0.009 0,0 0,0 0,0 0.0471,0.0121 0.11383,0.0366 0.19817,0.0713 0,0 0,0 0,0 l 0,0 c 0.15868,0.0653 0.42445,0.18687 0.73235,0.32597 0,0 0,0 0,0 l 0,0 c 0.68819,0.3109 1.55258,0.69468 2.8401,1.16969 l 0,0 c 2.78149,1.02637 6.38265,2.04838 11.42825,2.68577 l 0,0 c 4.91015,0.62205 10.341952,0.79589 16.455146,0.3037 8.869688,-0.71413 16.992693,-2.67012 22.680502,-4.20392 5.751631,-1.551 9.235942,-2.70971 9.319095,-2.47688 0.05824,0.16306 -3.296086,1.68923 -9.010885,3.52147 -5.666341,1.81671 -13.814997,3.95868 -22.866812,4.6806 -6.209593,0.49524 -11.782736,0.24263 -16.759826,-0.52004 l 0,0 c -5.09565,-0.78258 -8.82508,-2.03787 -11.53366,-3.29978 l 0,0 c -1.24492,-0.58009 -2.13285,-1.10095 -2.74409,-1.51969 l 0,0 c 0,0 0,0 0,0 -0.29644,-0.20309 -0.50869,-0.37005 -0.64798,-0.49823 l 0,0 c 0,0 0,0 0,0 -0.0685,-0.0631 -0.11706,-0.11485 -0.14684,-0.15507 0,0 0,0 0,0 -0.0148,-0.02 -0.0248,-0.0369 -0.03,-0.0507 -0.005,-0.0144 -0.006,-0.0252 -7.3e-4,-0.0325 z"
       id="path7399"
       inkscape:connector-curvature="0"
       inkscape:path-effect="#path-effect7401"
       inkscape:original-d="m -124.76407,146.11496 c 0,0 19.21373,13.77647 63.74083,-2.12607"
       sodipodi:nodetypes="cc" />
    <path
       style="opacity:1;fill:#000000;fill-opacity:1;stroke:none;stroke-width:2.11666656;stroke-linecap:round;stroke-linejoin:round;stroke-miterlimit:4;stroke-dasharray:none;stroke-opacity:1"
       d="m -60.218452,129.83825 c 0.01478,-0.20318 1.976091,-0.24511 5.125815,-0.14802 0,0 1e-6,0 1e-6,0 2.254749,0.13005 5.730771,0.39701 8.995144,1.4352 0,0 2e-6,0 2e-6,0 0.857442,0.25436 1.843212,0.6098 2.691853,1.28439 0.148307,0.1179 0.291797,0.24499 0.429443,0.38233 0.344582,0.33817 0.606146,0.81211 0.68587,1.38285 0.03957,0.63017 -0.152588,1.17555 -0.439525,1.57993 -1.058731,1.5351 -2.724585,2.34499 -3.977755,2.93451 -5.112001,2.51575 -8.991435,3.02226 -9.020742,2.93539 -0.09129,-0.27062 3.623137,-1.46328 8.42111,-4.09067 1.212126,-0.69007 2.704036,-1.42708 3.37842,-2.55818 0.136994,-0.24808 0.2478,-0.48734 0.203553,-0.64888 0.0033,-0.15034 -0.129136,-0.33715 -0.295926,-0.53158 -0.08495,-0.0945 -0.178893,-0.1823 -0.280899,-0.26455 -0.579798,-0.46754 -1.423137,-0.75216 -2.24063,-1.04643 0,0 -2e-6,0 -2e-6,0 -2.971213,-1.00378 -6.473003,-1.44623 -8.63969,-1.75919 0,0 -1e-6,0 -1e-6,0 -3.117113,-0.35866 -5.050815,-0.68396 -5.036041,-0.8871 z"
       id="path7403"
       inkscape:connector-curvature="0"
       inkscape:path-effect="#path-effect7405"
       inkscape:original-d="m -60.218475,129.83825 c 0,0 35.546847,1.30962 4.49013,11.78658" />
    <path
       style="opacity:1;fill:#000000;fill-opacity:1;stroke:none;stroke-width:2.11666656;stroke-linecap:round;stroke-linejoin:round;stroke-miterlimit:4;stroke-dasharray:none;stroke-opacity:1"
       d="m -105.86806,127.40611 c 0.004,-0.0139 0.0243,-0.0229 0.0605,-0.0274 0,0 0,0 0,0 0.0352,-0.004 0.0858,-0.005 0.15085,-0.001 l 0,0 0,0 0,0 c 0.12974,0.007 0.32456,0.0293 0.57095,0.0626 0,0 1e-5,0 1e-5,0 l 0,0 c 0.50875,0.0686 1.25462,0.18396 2.20935,0.31741 l 0,0 c 2.20034,0.30757 4.841818,0.62876 8.605334,0.86996 l 0,0 c 3.286082,0.21069 6.889566,0.32582 10.904278,0.2819 12.44908,-0.13618 22.533729,-1.66505 22.587067,-1.31613 0.03896,0.25487 -9.938743,2.45747 -22.573155,2.59429 -4.037391,0.0437 -7.712905,-0.13032 -11.007195,-0.4443 l 0,0 c -3.712103,-0.35389 -6.532489,-0.85312 -8.635329,-1.36037 l 0,0 c -0.95762,-0.231 -1.67063,-0.44266 -2.16889,-0.62113 l 0,0 c 0,0 0,0 0,0 -0.23918,-0.0857 -0.41734,-0.15993 -0.5366,-0.22105 l 0,0 0,0 0,0 c -0.0585,-0.03 -0.10183,-0.0564 -0.12991,-0.0789 0,0 0,0 0,0 -0.0287,-0.023 -0.0412,-0.0416 -0.0373,-0.0556 z"
       id="path7415"
       inkscape:connector-curvature="0"
       inkscape:path-effect="#path-effect7417"
       inkscape:original-d="m -105.86811,127.4061 c 0,0 15.715449,4.67721 45.088369,0.18708" />
    <path
       style="opacity:1;fill:#000000;fill-opacity:1;stroke:none;stroke-width:2.11666656;stroke-linecap:round;stroke-linejoin:round;stroke-miterlimit:4;stroke-dasharray:none;stroke-opacity:1"
       d="m -106.61644,133.58012 c 0.01,-0.004 0.0209,8.1e-4 0.0358,0.0136 0.0137,0.0118 0.0308,0.031 0.0515,0.0556 0.0505,0.0602 0.0906,0.11296 0.18225,0.21411 l 0,0 0,0 c 0.19045,0.20986 0.42608,0.42542 0.87044,0.71094 l 0,0 c 1.28352,0.82308 2.65225,1.25541 5.480067,1.71102 l 0,0 c 4.44393,0.69155 9.532016,0.98731 16.058578,0.56939 6.141542,-0.39327 12.820198,-1.41001 16.742308,-1.96756 4.29699,-0.61084 6.94501,-0.9318 6.977028,-0.74594 0.02765,0.16053 -2.56238,0.80033 -6.824433,1.6439 -4.052713,0.80213 -10.415252,1.94395 -16.813979,2.34577 -6.564776,0.41225 -11.873687,-0.0165 -16.305279,-0.92906 l 0,0 c -2.7973,-0.56082 -4.40642,-1.25995 -5.58701,-2.26024 l -10e-6,0 c -0.42486,-0.35885 -0.66216,-0.68446 -0.79054,-0.95005 l 0,0 0,0 c -0.0579,-0.1207 -0.0861,-0.21732 -0.0958,-0.28922 -0.005,-0.0353 -0.005,-0.063 -0.001,-0.0835 0.004,-0.0218 0.0108,-0.0346 0.0206,-0.0388 z"
       id="path7419"
       inkscape:connector-curvature="0"
       inkscape:path-effect="#path-effect7421"
       inkscape:original-d="m -106.61646,133.58002 c 0,0 1.87088,8.2319 46.397985,0.56127" />
    <path
       style="opacity:1;fill:#000000;fill-opacity:1;stroke:none;stroke-width:2.11666656;stroke-linecap:round;stroke-linejoin:round;stroke-miterlimit:4;stroke-dasharray:none;stroke-opacity:1"
       d="m -106.42932,130.58662 c 0.0114,-0.0261 0.0787,-0.0273 0.19782,-0.005 0,0 1e-5,0 1e-5,0 0.11584,0.0198 0.29355,0.0612 0.51271,0.11516 0,0 0,0 0,0 0.54704,0.13486 1.04758,0.26774 2.00965,0.48158 2.07007,0.46015 4.547124,0.90175 8.193317,1.22444 3.596554,0.31841 7.571901,0.46216 12.092657,0.32835 12.78787,-0.3785 23.133668,-2.51004 23.20469,-2.14448 0.03334,0.17159 -10.105113,3.10948 -23.165049,3.49158 -4.561305,0.13346 -8.63762,-0.0843 -12.253789,-0.53161 -3.623032,-0.44829 -6.262666,-1.08427 -8.243876,-1.75261 -0.8771,-0.29588 -1.51119,-0.56364 -1.95288,-0.78806 -1e-5,0 -1e-5,0 -1e-5,0 -0.21019,-0.10672 -0.36312,-0.19725 -0.4638,-0.26992 0,0 0,0 0,0 -0.0982,-0.0731 -0.14288,-0.12328 -0.13145,-0.14936 z"
       id="path7423"
       inkscape:connector-curvature="0"
       inkscape:path-effect="#path-effect7425"
       inkscape:original-d="m -106.42937,130.5866 c 0,0 13.47038,6.36102 46.210895,0" />
    <path
       style="opacity:1;fill:#000000;fill-opacity:1;stroke:none;stroke-width:2.11666656;stroke-linecap:round;stroke-linejoin:round;stroke-miterlimit:4;stroke-dasharray:none;stroke-opacity:1"
       d="m -105.30678,126.65767 c -0.0134,-0.0122 -0.0198,-0.031 -0.0199,-0.057 0,0 0,0 0,0 -1e-4,-0.0245 0.006,-0.055 0.0165,-0.0913 0,0 0,0 0,0 0.0219,-0.0722 0.0655,-0.16798 0.128,-0.28485 l 0,0 0,0 c 0.12298,-0.23016 0.32393,-0.55006 0.57797,-0.93671 0,0 0,0 0,0 l 0,0 c 0.50167,-0.76363 1.22,-1.80341 2.00434,-3.02778 0.35625,-0.56069 0.74142,-1.17321 1.11626,-1.79975 1.09505,-1.83031 1.744158,-3.18892 2.256308,-4.50893 0.46281,-1.19285 0.671679,-1.98895 0.844688,-1.96666 0.151731,0.0195 0.238407,0.86567 -0.04199,2.20281 -0.293146,1.39795 -0.925698,3.04387 -2.030217,4.88854 -0.39229,0.65517 -0.80259,1.26677 -1.20199,1.8223 -0.87273,1.22364 -1.72341,2.19337 -2.38874,2.84871 l 0,0 c 0,0 0,0 0,0 -0.33801,0.33298 -0.62417,0.58053 -0.84169,0.73668 l 0,0 0,0 c -0.10902,0.0782 -0.19977,0.13265 -0.27027,0.16246 0,0 0,0 0,0 -0.0353,0.0149 -0.0654,0.0236 -0.09,0.0259 0,0 0,0 0,0 -0.0262,0.002 -0.0458,-0.002 -0.0592,-0.0144 z"
       id="path7427"
       inkscape:connector-curvature="0"
       inkscape:path-effect="#path-effect7429"
       inkscape:original-d="m -105.30684,126.65774 c 0,0 6.143766,-6.6162 6.924225,-12.67307"
       sodipodi:nodetypes="cc" />
    <path
       style="opacity:1;fill:#000000;fill-opacity:1;stroke:none;stroke-width:2.11666656;stroke-linecap:round;stroke-linejoin:round;stroke-miterlimit:4;stroke-dasharray:none;stroke-opacity:1"
       d="m -97.636163,112.62597 c -0.150177,-0.15686 0.822432,-1.34636 2.446969,-3.03955 1.168332,-0.62035 2.569981,-1.0242 4.197485,-1.11459 2.302807,-0.1279 4.461002,0.40652 5.872312,0.88995 1.444921,0.49494 2.237811,0.96472 2.1896,1.11004 -0.05642,0.17005 -0.949738,0.002 -2.396847,-0.27367 -1.375553,-0.26197 -3.49817,-0.67139 -5.513887,-0.59935 -1.466921,0.0524 -2.685357,0.34317 -3.766575,0.82407 -1.658338,1.45075 -2.879363,2.35946 -3.029057,2.2031 z"
       id="path7431"
       inkscape:connector-curvature="0"
       inkscape:path-effect="#path-effect7433"
       inkscape:original-d="m -97.636207,112.62609 c 0,0 2.356604,-6.25143 14.706404,-2.15427"
       sodipodi:nodetypes="cc" />
    <path
       style="opacity:1;fill:#000000;fill-opacity:1;stroke:none;stroke-width:2.11666656;stroke-linecap:round;stroke-linejoin:round;stroke-miterlimit:4;stroke-dasharray:none;stroke-opacity:1"
       d="m -85.288327,110.94228 c -0.02274,-0.3147 5.358325,-0.966 12.708824,-1.56949 0,0 10e-7,0 10e-7,0 1.425344,0.18355 2.939325,0.54337 4.397381,1.15902 1.71507,0.72418 3.185648,1.73191 4.33452,3.00738 0,0 0,10e-6 0,10e-6 2.405405,2.79474 2.83911,6.24408 2.852882,8.35936 0.01464,2.24846 -0.383773,3.49367 -0.489929,3.48361 -0.15254,-0.0145 -0.101525,-1.30998 -0.337527,-3.43602 -0.222761,-2.00676 -0.802437,-5.21888 -2.993808,-7.53595 -10e-7,0 -10e-7,0 -10e-7,0 -0.991523,-1.1042 -2.281715,-1.97274 -3.817964,-2.62071 -1.303452,-0.54977 -2.683594,-0.89807 -3.992947,-1.11119 0,0 -10e-7,0 -10e-7,0 -7.240926,0.45124 -12.638704,0.57846 -12.661431,0.26398 z"
       id="path7435"
       inkscape:connector-curvature="0"
       inkscape:path-effect="#path-effect7437"
       inkscape:original-d="m -85.288357,110.94229 c 0,0 25.861684,-7.26241 23.80371,14.43987"
       sodipodi:nodetypes="cc" />
    <path
       style="opacity:1;fill:#000000;fill-opacity:1;stroke:none;stroke-width:2.11666656;stroke-linecap:round;stroke-linejoin:round;stroke-miterlimit:4;stroke-dasharray:none;stroke-opacity:1"
       d="m -94.642734,113.37445 c -0.0065,-0.29396 3.61744,-0.61987 8.414716,-0.78056 0,0 0,0 0,0 0.436789,-0.023 1.546113,-0.08 1.982901,-0.103 1.885409,-0.0981 3.297773,-0.17742 4.870425,-0.27936 3.241743,-0.21505 5.466295,-0.44738 5.498748,-0.33379 0.09122,0.31926 -2.09421,0.97936 -5.396736,1.39541 -1.482801,0.1885 -3.116948,0.33122 -4.917799,0.42492 -0.683587,0.0356 -1.353093,0.0621 -1.999853,0.0815 0,0 -10e-7,0 -10e-7,0 -4.809108,0.0531 -8.445859,-0.11119 -8.452401,-0.40517 z"
       id="path7439"
       inkscape:connector-curvature="0"
       inkscape:path-effect="#path-effect7441"
       inkscape:original-d="m -94.642788,113.37445 c 0,0 15.528358,-10e-6 20.76684,-1.49671"
       sodipodi:nodetypes="cc" />
    <path
       style="opacity:1;fill:#000000;fill-opacity:1;stroke:none;stroke-width:2.11666656;stroke-linecap:round;stroke-linejoin:round;stroke-miterlimit:4;stroke-dasharray:none;stroke-opacity:1"
       d="m -104.34172,154.50787 c 0.0119,-0.005 0.0269,-7.7e-4 0.0451,0.0112 0,0 0,0 0,0 0.0198,0.0174 0.0438,0.0452 0.0718,0.0832 l 0,0 0,0 0,0 c 0.0551,0.0747 0.12663,0.18971 0.21394,0.34109 l 0,0 c 0.1679,0.29108 0.40454,0.73566 0.70016,1.2901 l 0,0 c 0.54403,1.02028 1.3558,2.54573 2.41234,4.27948 l 0,0 c 0.930993,1.52702 2.135675,3.36096 3.610871,5.14467 l 0,0 c 1.247696,1.50503 2.770933,3.10145 4.597869,4.32526 l 0,0 c 1.537345,1.0244 3.383126,1.83894 5.310034,1.91326 1.307664,0.0694 2.644914,-0.21605 3.940503,-0.76325 0.742785,-0.31372 1.454145,-0.70606 2.117372,-1.1458 2.982264,-1.98509 5.263373,-4.94538 7.066084,-7.56322 5.666419,-8.26636 8.04558,-14.99554 8.328266,-14.88031 -0.05166,-0.0211 -1.538876,6.96369 -7.172815,15.65057 -1.766373,2.73622 -4.117021,5.85596 -7.362346,8.06787 -0.732693,0.501 -1.530543,0.94423 -2.378054,1.29763 -1.477839,0.61624 -3.043249,0.93311 -4.613799,0.86136 -2.30212,-0.13314 -4.385592,-1.06629 -6.054938,-2.245 l 0,0 c -1.971072,-1.38555 -3.538658,-3.11049 -4.776287,-4.72253 l 0,0 c -1.471448,-1.91203 -2.61323,-3.83951 -3.46641,-5.45593 l 0,0 c -0.97344,-1.8433 -1.64767,-3.42896 -2.06203,-4.53717 l 0,0 c -0.22464,-0.60076 -0.37705,-1.07293 -0.46529,-1.40651 l 0,0 c -0.0452,-0.17089 -0.073,-0.30346 -0.0841,-0.39681 l 0,0 0,0 0,0 c -0.006,-0.0471 -0.007,-0.0839 -0.004,-0.11034 0,0 0,0 0,0 0.005,-0.0212 0.0139,-0.0342 0.0258,-0.0388 z"
       id="path7463"
       inkscape:connector-curvature="0"
       inkscape:path-effect="#path-effect7465"
       inkscape:original-d="m -104.34514,154.49893 c 0,0 17.163199,45.18665 38.417707,-6.95535"
       sodipodi:nodetypes="cc" />
    <path
       style="opacity:1;fill:#000000;fill-opacity:1;stroke:none;stroke-width:2.11666656;stroke-linecap:round;stroke-linejoin:round;stroke-miterlimit:4;stroke-dasharray:none;stroke-opacity:1"
       d="m -94.456168,162.72396 c -0.0042,-0.43186 2.202387,-0.80926 5.039134,-0.88149 0,0 0,0 0,0 0.197719,-0.002 0.398823,-0.002 0.602538,2.9e-4 1.208101,0.0127 2.293181,0.0982 3.223907,0.24844 0.601304,0.097 1.09685,0.21437 1.504829,0.3599 0.629982,0.22077 0.950298,0.48734 0.874299,0.66974 -0.04744,0.11386 -0.433118,0.21951 -0.999315,0.25639 -0.347369,0.0312 -0.927072,0.0694 -1.463315,0.0918 -0.852569,0.0363 -2.016541,0.0591 -3.146609,0.047 -0.200303,-0.002 -0.398175,-0.005 -0.593517,-0.01 0,0 0,0 0,0 -2.826622,-0.0165 -5.037708,-0.35064 -5.041951,-0.78245 z"
       id="path7467"
       inkscape:connector-curvature="0"
       inkscape:path-effect="#path-effect7469"
       inkscape:original-d="m -94.456254,162.72396 c 0,0 9.657291,-0.26458 11.244791,0.39688" />
    <path
       style="opacity:1;fill:#000000;fill-opacity:1;stroke:none;stroke-width:2.11666656;stroke-linecap:round;stroke-linejoin:round;stroke-miterlimit:4;stroke-dasharray:none;stroke-opacity:1"
       d="m -72.231222,167.35417 c -3.42e-4,-0.009 0.0061,-0.0175 0.01924,-0.0267 0,0 0,0 0,0 0.0126,-0.009 0.03131,-0.0179 0.0562,-0.0269 0,0 0,0 0,0 0.04964,-0.018 0.122492,-0.0357 0.219531,-0.0518 l 0,0 0,0 c 0.193245,-0.032 0.471956,-0.0562 0.841109,-0.0587 0,0 10e-7,0 10e-7,0 l 0,0 c 0.722556,-0.005 1.750146,0.0723 3.043473,0.36314 l 0,0 c 2.624369,0.59137 6.062736,2.0173 9.534753,5.06291 l 0,0 c 3.959136,3.47576 7.221531,8.28422 9.762812,14.43138 0.122578,0.2965 0.242098,0.59276 0.358658,0.88853 3.181255,8.05201 4.435965,16.02533 4.998605,21.56512 0.572986,5.64164 0.493277,9.12162 0.344014,9.13127 -0.234489,0.0152 -0.509652,-3.44197 -1.332154,-9.00824 -0.805114,-5.44859 -2.211989,-13.31702 -5.334407,-21.1632 -0.115138,-0.28859 -0.232808,-0.57762 -0.353094,-0.86682 -2.497485,-6.00464 -5.53231,-10.65216 -9.247763,-14.08571 l 0,0 c -3.250709,-3.00682 -6.420658,-4.51192 -8.911021,-5.27852 l 0,0 c -1.228169,-0.37859 -2.189145,-0.55572 -2.891426,-0.66608 l 0,0 c 0,0 -10e-7,0 -10e-7,0 -0.35274,-0.0554 -0.625596,-0.0911 -0.812719,-0.12109 l 0,0 0,0 c -0.0947,-0.0151 -0.168444,-0.0291 -0.217525,-0.0429 0,0 0,0 0,0 -0.02497,-0.007 -0.04413,-0.0142 -0.05718,-0.0215 0,0 0,0 0,0 -0.01371,-0.008 -0.02078,-0.0156 -0.02112,-0.0242 z"
       id="path7471"
       inkscape:connector-curvature="0"
       inkscape:path-effect="#path-effect7473"
       inkscape:original-d="m -72.231254,167.35417 c 0,0 25.738852,-1.90299 29.178435,51.27827"
       sodipodi:nodetypes="cc" />
    <path
       style="opacity:1;fill:#000000;fill-opacity:1;stroke:none;stroke-width:2.11666656;stroke-linecap:round;stroke-linejoin:round;stroke-miterlimit:4;stroke-dasharray:none;stroke-opacity:1"
       d="m -101.33545,167.35417 c 0.001,0.009 -0.005,0.0187 -0.0181,0.0295 0,0 0,0 0,0 -0.0127,0.0103 -0.032,0.0215 -0.0577,0.0337 0,0 0,0 0,0 -0.0506,0.024 -0.12768,0.0527 -0.22763,0.0864 l 0,0 0,0 c -0.19785,0.0666 -0.48857,0.15439 -0.86346,0.27462 0,0 0,0 0,0 l 0,0 c -0.74862,0.24009 -1.76915,0.5868 -3.06199,1.16732 v 0 c -2.55371,1.14648 -5.85709,3.0953 -9.09234,6.47838 l 0,0 c -3.16682,3.30717 -5.84711,7.59237 -7.86873,12.89634 -0.30421,0.79816 -0.58478,1.59671 -0.84341,2.39153 0,0 0,0 0,0 -2.44267,7.51305 -3.08134,14.90607 -3.32758,19.99525 -0.25118,5.19125 -0.179,8.38653 -0.36786,8.39576 -0.14257,0.007 -0.60962,-3.16052 -0.61423,-8.41896 -0.005,-5.16021 0.46718,-12.66461 2.94172,-20.41281 0,0 0,-1e-5 0,-1e-5 0.26137,-0.81905 0.54766,-1.64211 0.86075,-2.46506 2.07915,-5.46491 4.94526,-9.8977 8.32321,-13.26126 l 0,0 c 3.45358,-3.43453 7.00545,-5.31347 9.70863,-6.29167 l 0,0 c 1.36416,-0.49348 2.46522,-0.74439 3.25021,-0.86507 l 0,0 c 0,0 0,0 0,0 0.40003,-0.0615 0.70595,-0.0867 0.92075,-0.089 l 0,0 0,0 c 0.10767,-0.001 0.18965,0.004 0.24651,0.0133 0,0 0,0 0,0 0.0285,0.005 0.0503,0.0106 0.0656,0.0175 0,0 0,0 0,0 0.0159,0.007 0.0244,0.0152 0.0256,0.0243 z"
       id="path7475"
       inkscape:connector-curvature="0"
       inkscape:path-effect="#path-effect7477"
       inkscape:original-d="m -101.33542,167.35417 c 0,0 -28.11003,3.0654 -25.72878,51.74873"
       sodipodi:nodetypes="cc" />
    <path
       style="opacity:1;fill:#000000;fill-opacity:1;stroke:none;stroke-width:1.13572335;stroke-linecap:round;stroke-linejoin:round;stroke-miterlimit:4;stroke-dasharray:none;stroke-opacity:1"
       d="m -117.58935,208.93358 c 0.0694,0.16586 -1.50256,0.93149 -4.09639,1.84018 l 3e-5,4e-5 c 0.003,-0.007 0.008,-0.0127 0.0113,-0.0192 0.01,-0.0173 0.0207,-0.0348 0.0314,-0.0525 0,0 0,0 0,0 0.0405,-0.0666 0.084,-0.13533 0.12994,-0.20538 0,0 0,0 0,0 0.11217,0.0718 0.23922,0.13379 0.37945,0.1925 0.50487,0.21293 1.08693,0.30533 1.74645,0.32638 2.7021,0.0902 5.26989,-1.016 8.55465,-2.81542 0.38381,-0.22566 0.73791,-0.44644 0.94117,-0.72488 0.11074,-0.16035 0.19682,-0.32699 0.16985,-0.43848 0.0111,-0.13588 -0.10027,-0.31645 -0.23821,-0.52416 -0.0861,-0.11767 -0.18862,-0.23025 -0.30348,-0.34057 -0.1466,-0.14083 -0.31244,-0.27719 -0.48664,-0.41385 -0.84442,-0.65324 -1.83979,-1.17046 -2.80558,-1.66213 -1.09004,-0.55163 -2.36218,-1.13754 -3.39432,-1.63387 0,0 0,0 0,0 -1.01819,-0.48763 -1.9477,-0.93381 -2.84799,-1.5269 -0.31248,-0.20068 -0.63443,-0.43836 -0.9199,-0.75916 0,0 0,0 0,0 -0.10562,-0.11506 -0.20865,-0.26645 -0.29101,-0.45636 0,0 0,0 0,0 -0.0731,-0.16403 -0.0993,-0.36432 -0.0668,-0.58514 0,0 0,-1e-5 0,-1e-5 0.0526,-0.23058 0.15388,-0.40849 0.27881,-0.53048 0.16225,-0.16363 0.32933,-0.27305 0.48032,-0.34542 0.51415,-0.25592 1.03779,-0.36972 1.48003,-0.44783 3.66204,-0.68007 5.91527,-0.16371 5.91488,-0.17074 0.01,0.18295 -2.29633,0.20709 -5.71131,1.09153 -0.41907,0.11228 -0.85857,0.22903 -1.19344,0.43255 -0.0924,0.0594 -0.16558,0.10628 -0.19467,0.15128 -0.0116,0.0271 -0.0193,0.0301 -0.002,0.001 0,0 0,0 0,0 -2.9e-4,-0.0315 0.009,-0.0346 0.0116,-0.0192 0,0 0,0 0,0 0.0111,0.031 0.0537,0.0756 0.1113,0.14181 0,0 0,0 0,0 0.17365,0.18913 0.42305,0.34432 0.71571,0.52707 0.83825,0.50839 1.72264,0.89085 2.76217,1.35878 0,0 0,0 0,0 1.05952,0.47459 2.30098,1.01513 3.45813,1.58117 0.99023,0.48139 2.05911,1.03313 3.03751,1.77645 0.2039,0.15299 0.40983,0.32369 0.60745,0.51759 0.15472,0.1518 0.30342,0.31692 0.44185,0.498 0.25818,0.31931 0.45742,0.74796 0.50454,1.26203 0.01,0.53919 -0.17675,1.00789 -0.46555,1.35064 -0.40736,0.49053 -0.89719,0.81766 -1.35381,1.05397 -3.32883,1.83609 -6.27311,2.90292 -9.25194,2.68201 -0.74923,-0.0563 -1.45015,-0.22555 -2.07137,-0.53322 -0.17299,-0.0861 -0.34091,-0.18653 -0.49937,-0.30515 0,0 -1e-5,0 -1e-5,0 -0.0274,-0.12256 -0.0546,-0.2425 -0.0821,-0.36689 0,0 0,0 0,0 -0.008,-0.0326 -0.0145,-0.0654 -0.0215,-0.0983 -0.002,-0.0123 -0.006,-0.0245 -0.008,-0.0369 v 0 c 2.80087,-1.35086 4.46766,-1.93853 4.53665,-1.77371 z"
       id="path7561"
       inkscape:connector-curvature="0" />
    <path
       style="opacity:1;fill:#000000;fill-opacity:1;stroke:none;stroke-width:1.01942861;stroke-linecap:round;stroke-linejoin:round;stroke-miterlimit:4;stroke-dasharray:none;stroke-opacity:1"
       d="m -108.15898,199.42386 c -0.28009,-0.41081 1.24791,-1.61531 4.17051,-3.00541 -0.34737,2.14978 -0.56033,3.60197 -0.90769,5.75175 -0.97027,5.95109 -2.11524,10.58797 -2.90239,10.40908 -0.79461,-0.1806 0.16644,-4.74124 1.76528,-10.12868 0.58756,-1.97987 1.1644,-3.83524 1.63308,-5.42767 -1.85567,1.85411 -3.47231,2.82109 -3.75879,2.40093 z"
       id="path7569"
       inkscape:connector-curvature="0" />
    <path
       style="opacity:1;fill:#000000;fill-opacity:1;stroke:none;stroke-width:1.01942861;stroke-linecap:round;stroke-linejoin:round;stroke-miterlimit:4;stroke-dasharray:none;stroke-opacity:1"
       d="m -106.35683,206.00155 c -0.006,-0.0168 -0.008,-0.0346 -0.005,-0.055 0,0 0,0 0,0 0.003,-0.0189 0.0104,-0.0393 0.0222,-0.0609 0,0 0,0 0,0 0.023,-0.0422 0.0627,-0.0888 0.11906,-0.13763 v 0 0 c 0.10806,-0.0925 0.28062,-0.1949 0.51402,-0.27799 v 0 c 0.41531,-0.14885 1.08065,-0.24489 1.82522,0.0103 v 0 0 c 0.76362,0.28399 1.44296,0.88029 1.88585,1.70361 0.0303,0.0563 0.059,0.11284 0.0862,0.1695 0.58131,1.18848 0.69792,2.38602 0.67489,3.18702 -0.0236,0.82115 -0.1853,1.3106 -0.34716,1.31804 -0.17859,0.008 -0.33805,-0.46869 -0.53781,-1.21909 -0.18929,-0.7111 -0.44187,-1.79099 -0.92631,-2.71131 -0.0228,-0.0422 -0.0462,-0.0844 -0.0701,-0.12643 -0.35095,-0.61632 -0.74098,-1.0614 -1.20045,-1.29644 v 0 0 c -0.43306,-0.24373 -0.93471,-0.31509 -1.28794,-0.34843 v 0 c -0.20323,-0.018 -0.37265,-0.0264 -0.50019,-0.0441 v 0 0 c -0.0681,-0.009 -0.12416,-0.021 -0.16605,-0.0378 0,0 0,0 0,0 -0.0216,-0.009 -0.0397,-0.0187 -0.0541,-0.0303 0,0 0,0 0,0 -0.0154,-0.0126 -0.0262,-0.0263 -0.0326,-0.043 z"
       id="path7573"
       inkscape:connector-curvature="0" />
    <path
       style="opacity:1;fill:#000000;fill-opacity:1;stroke:none;stroke-width:1.05729318;stroke-linecap:round;stroke-linejoin:round;stroke-miterlimit:4;stroke-dasharray:none;stroke-opacity:1"
       d="m -98.205915,212.32958 c -0.211823,0.0111 -0.53249,-2.50503 -0.859373,-6.44504 0,0 0,-10e-6 0,-10e-6 0.03961,-1.50831 0.230631,-3.37877 0.950524,-5.19403 0.301694,-0.75463 0.722052,-1.51802 1.306855,-2.19816 0.552782,-0.63984 1.258185,-1.18011 2.079885,-1.53538 0.164642,-0.0767 0.339706,-0.14123 0.522551,-0.19063 0.585899,-0.15831 1.235356,-0.15606 1.863351,0.0864 0.765029,0.36051 1.269758,0.97709 1.570169,1.58691 0.920744,1.78337 1.06677,3.78606 1.13399,5.32599 0.113731,2.22504 -0.02878,4.25137 -0.177472,5.60097 -0.219894,1.64786 -0.409027,2.59484 -0.53927,2.5893 0,0 0,0 0,0 0,0 0,0 0,0 0,0 0,0 0,0 0,0 -10e-7,0 -10e-7,0 0,0 0,0 0,0 0,0 0,0 0,0 0,0 0,0 0,0 0,0 -1e-6,0 -1e-6,0 0,0 0,0 0,0 0,0 0,0 0,0 0,0 0,0 0,0 0,0 -10e-7,0 -10e-7,0 0,0 0,0 0,0 0,0 0,0 0,0 -0.0013,-9e-5 -0.0012,-1e-4 -0.0012,-9e-5 4.8e-5,0 9.3e-5,10e-6 -0.0012,-1.3e-4 0,0 0,0 0,0 0,0 0,0 0,0 0,0 -10e-7,0 -10e-7,0 0,0 0,0 0,0 0,0 0,0 0,0 0,0 -1e-6,0 -1e-6,0 0,0 0,0 0,0 0,0 0,0 0,0 0,0 0,0 0,0 0,0 -10e-7,0 -10e-7,0 0,0 0,0 0,0 0,0 0,0 0,0 0,0 -10e-7,0 -10e-7,0 0,0 0,0 0,0 -0.129355,-0.0173 -0.182342,-0.98476 -0.167728,-2.63136 -0.01861,-1.29613 -0.03842,-3.38572 -0.246155,-5.47392 -0.16087,-1.51027 -0.340025,-3.37678 -1.142076,-4.79695 -0.266248,-0.44371 -0.571956,-0.86185 -0.94787,-0.99066 -0.259277,-0.13798 -0.616063,-0.11193 -0.99346,-0.008 -0.117685,0.0325 -0.236399,0.0723 -0.353206,0.1163 -0.624197,0.2644 -1.177538,0.68413 -1.620041,1.18008 -0.4778,0.53248 -0.841316,1.17195 -1.126434,1.82351 -0.685222,1.5523 -0.935302,3.28355 -1.069182,4.71315 0,0 0,0 0,0 0.08492,3.89899 0.02903,6.43045 -0.182649,6.44157 z"
       id="path7577"
       inkscape:connector-curvature="0" />
    <path
       style="opacity:1;fill:#000000;fill-opacity:1;stroke:none;stroke-width:1.05729318;stroke-linecap:round;stroke-linejoin:round;stroke-miterlimit:4;stroke-dasharray:none;stroke-opacity:1"
       d="m -98.299365,204.29268 c -0.02168,-0.36412 1.719137,-0.7643 3.885738,-0.89327 2.166602,-0.12896 3.942594,0.0619 3.964267,0.42602 0.02168,0.36412 -1.719136,0.7643 -3.885738,0.89327 -2.166601,0.12896 -3.942593,-0.0619 -3.964267,-0.42602 z"
       id="path7581"
       inkscape:connector-curvature="0" />
    <path
       style="opacity:1;fill:#000000;fill-opacity:1;stroke:none;stroke-width:1.243595;stroke-linecap:round;stroke-linejoin:round;stroke-miterlimit:4;stroke-dasharray:none;stroke-opacity:1"
       d="m -76.728752,197.15808 c 0.110229,0.18466 -0.91419,1.02308 -2.65068,2.22342 0,0 -2e-6,0 -2e-6,0 -1.237506,0.92644 -3.219488,2.35864 -4.690777,3.99068 0,1e-5 -10e-7,1e-5 -10e-7,1e-5 -0.378482,0.43007 -0.752637,0.87448 -1.013562,1.33249 -0.107034,0.18786 -0.194389,0.37664 -0.257631,0.56856 -0.153176,0.46867 -0.145381,0.98563 0.09249,1.27973 0.377598,0.64584 1.345873,1.00709 2.164182,1.32563 3.086367,1.09449 5.49239,1.19535 5.476634,1.48052 -0.005,0.0913 -2.351399,0.72551 -5.868771,-0.19816 -0.924535,-0.21426 -2.142679,-0.64766 -3.000232,-1.73296 -0.538385,-0.79561 -0.64544,-1.7852 -0.329247,-2.66478 0.103118,-0.28592 0.228856,-0.55762 0.372505,-0.81635 0.351972,-0.63394 0.799418,-1.16816 1.238916,-1.61898 10e-7,0 10e-7,0 10e-7,0 1.732478,-1.81705 3.819187,-3.0968 5.234238,-3.88163 0,0 10e-7,0 10e-7,0 1.896573,-0.96829 3.12166,-1.4729 3.231934,-1.28818 z"
       id="path7585"
       inkscape:connector-curvature="0" />
    <path
       style="opacity:1;fill:#000000;fill-opacity:1;stroke:none;stroke-width:1.243595;stroke-linecap:round;stroke-linejoin:round;stroke-miterlimit:4;stroke-dasharray:none;stroke-opacity:1"
       d="m -80.795738,205.07227 c 0.0039,-0.0139 0.01135,-0.0261 0.02287,-0.0377 0,0 0,0 0,0 0.01086,-0.011 0.02523,-0.0209 0.04293,-0.0297 0,0 0,0 0,0 0.035,-0.0174 0.08303,-0.0307 0.143499,-0.0398 v 0 0 c 0.11839,-0.0174 0.283776,-0.0182 0.491463,-0.001 v 0 c 0.388332,0.0321 0.931025,0.12771 1.577672,0.30346 v 0 c 0.985582,0.26249 2.489875,0.76039 3.808953,1.77756 v 0 c 0.473572,0.34897 0.969419,0.85955 1.272902,1.58393 0.03941,0.11077 0.07088,0.22287 0.09443,0.33577 0.133208,0.63848 0.0084,1.27043 -0.301943,1.7845 -0.594011,0.92769 -1.44814,1.46249 -2.136668,1.79993 -2.442566,1.26477 -4.299075,1.27209 -4.356608,1.09674 -0.09348,-0.28489 1.615454,-0.93937 3.662151,-2.28887 0.578475,-0.40036 1.237843,-0.84389 1.50746,-1.38506 0.112438,-0.20589 0.16727,-0.47039 0.116951,-0.68121 -0.0089,-0.0373 -0.02112,-0.0728 -0.03674,-0.10577 -0.10097,-0.33017 -0.4319,-0.64926 -0.777552,-0.96837 v 0 c -0.979493,-0.85519 -2.382142,-1.51871 -3.233601,-1.95374 v 0 c -0.577971,-0.29269 -1.043706,-0.52599 -1.377979,-0.72126 v 0 c -0.175422,-0.10247 -0.310815,-0.19251 -0.399485,-0.26947 v 0 0 c -0.04564,-0.0395 -0.07911,-0.0759 -0.09957,-0.1087 0,0 0,0 0,0 -0.01037,-0.0166 -0.01742,-0.0325 -0.02105,-0.0473 0,0 0,0 0,0 -0.0038,-0.0157 -0.0039,-0.0301 -7.8e-5,-0.0439 z"
       id="path7589"
       inkscape:connector-curvature="0" />
    <path
       style="opacity:1;fill:#000000;fill-opacity:1;stroke:none;stroke-width:1.24123085;stroke-linecap:round;stroke-linejoin:round;stroke-miterlimit:4;stroke-dasharray:none;stroke-opacity:1"
       d="m -65.621848,196.78365 c 0.0077,0.011 0.01132,0.0247 0.01144,0.0409 0,0 0,0 0,0 1.11e-4,0.0155 -0.0032,0.0331 -0.0097,0.053 0,0 0,0 0,0 -0.01302,0.0392 -0.03895,0.0871 -0.07689,0.14316 v 0 0 c -0.07381,0.10934 -0.194245,0.25155 -0.353197,0.4234 v 0 0 c -0.306951,0.33189 -0.742315,0.75917 -1.279704,1.30815 v 0 c -0.847948,0.87036 -2.170662,2.21745 -3.023471,3.74129 v 0 c -0.34166,0.6174 -0.641214,1.28884 -0.725192,1.96361 -0.0016,0.0122 -0.0032,0.024 -0.0047,0.036 -0.0768,0.61901 0.03165,1.24249 0.295204,1.74438 0.37633,0.77246 1.140247,1.38902 1.832262,1.86683 2.231762,1.50793 4.171323,2.01362 4.101956,2.28339 -0.02778,0.108 -2.058852,0.30596 -4.780136,-1.15148 -0.85634,-0.44952 -1.833288,-1.16256 -2.482519,-2.27713 -0.435599,-0.78518 -0.624814,-1.71784 -0.506376,-2.6587 0.0023,-0.0183 0.0047,-0.0364 0.0072,-0.0545 0.141749,-0.96654 0.525442,-1.81653 0.968007,-2.5204 v 0 c 1.097451,-1.76007 2.596902,-3.00973 3.642731,-3.76016 v 0 c 0.642417,-0.46376 1.199535,-0.79291 1.60887,-0.99056 v 0 0 c 0.216631,-0.10459 0.393069,-0.17303 0.52399,-0.2057 v 0 0 c 0.06663,-0.0166 0.121136,-0.0239 0.162937,-0.0217 0,0 0,0 0,0 0.02109,0.001 0.03889,0.005 0.05332,0.011 0,0 0,0 0,0 0.01508,0.006 0.02629,0.0146 0.03397,0.0259 z"
       id="path7593"
       inkscape:connector-curvature="0" />
    <path
       style="opacity:1;fill:#000000;fill-opacity:1;stroke:none;stroke-width:1.24123085;stroke-linecap:round;stroke-linejoin:round;stroke-miterlimit:4;stroke-dasharray:none;stroke-opacity:1"
       d="m -66.280073,206.76729 c 0.06007,-0.18065 0.692756,-0.15365 1.706608,0.0415 0,0 0,0 0,0 0.753505,0.19058 1.921169,0.60343 2.901935,1.54173 0.391879,0.37465 0.744056,0.89168 0.915706,1.54647 0.08146,0.37096 0.09183,0.74596 0.03744,1.10923 -0.04829,0.32254 -0.146089,0.62574 -0.279985,0.89968 -0.443594,0.90711 -1.112661,1.55748 -1.70482,2.01723 -1.879449,1.49081 -3.471225,1.80788 -3.576915,1.62103 -0.149189,-0.26374 1.165662,-1.15582 2.655969,-2.65762 0.464421,-0.47847 0.977024,-1.03046 1.22387,-1.62484 0.06689,-0.16296 0.120455,-0.33312 0.14973,-0.49887 0.03305,-0.18707 0.03428,-0.36325 -0.0061,-0.5182 -0.04915,-0.29767 -0.250551,-0.6055 -0.478924,-0.88398 -0.586358,-0.70849 -1.571541,-1.256 -2.183059,-1.61453 0,0 0,0 0,0 -0.900287,-0.44115 -1.421468,-0.79834 -1.361469,-0.97877 z"
       id="path7597"
       inkscape:connector-curvature="0" />
    <path
       style="opacity:1;fill:#000000;fill-opacity:1;stroke:none;stroke-width:1.37456334;stroke-linecap:round;stroke-linejoin:round;stroke-miterlimit:4;stroke-dasharray:none;stroke-opacity:1"
       d="m -59.79877,196.19661 c 0.01466,-0.004 0.03008,-0.004 0.04711,-4.3e-4 0,0 0,0 0,0 0.01617,0.004 0.03343,0.0121 0.05174,0.0231 0,0 0,0 0,0 0.03614,0.0225 0.0766,0.0597 0.121191,0.11043 v 0 0 c 0.08667,0.0983 0.190024,0.24895 0.309461,0.44388 v 0 c 0.229513,0.37455 0.502733,0.88438 0.860971,1.52658 v 0 c 0.535158,0.94929 1.36458,2.49697 2.450936,3.51669 v 0 c 0.411478,0.37317 0.856628,0.71996 1.305539,0.81368 0.134783,0.0414 0.282653,0.0562 0.437445,0.0476 0.291144,-0.0159 0.597373,-0.11326 0.86876,-0.25409 0.767757,-0.39143 1.410402,-1.19815 1.960198,-1.91261 1.798056,-2.40374 2.697638,-4.43779 3.007209,-4.31487 0.184775,0.0734 -0.0028,2.32185 -1.738685,5.16891 -0.502476,0.84905 -1.245789,1.85458 -2.39327,2.54229 -0.477286,0.28073 -1.036848,0.45575 -1.631736,0.47744 -0.315585,0.0121 -0.634544,-0.0205 -0.94921,-0.0982 -0.879967,-0.25888 -1.555496,-0.77415 -2.041399,-1.31031 v 0 c -1.311396,-1.41249 -1.975915,-3.1154 -2.32671,-4.22182 v 0 c -0.233943,-0.7234 -0.367325,-1.33318 -0.421942,-1.76869 v 0 c -0.0293,-0.23355 -0.03641,-0.41957 -0.02319,-0.55295 v 0 0 c 0.0069,-0.0681 0.01889,-0.1223 0.03611,-0.1619 0,0 0,0 0,0 0.0088,-0.02 0.01872,-0.0363 0.03001,-0.0487 0,0 0,0 0,0 0.01187,-0.0135 0.0248,-0.0216 0.03945,-0.0262 z"
       id="path7601"
       inkscape:connector-curvature="0" />
    <path
       style="opacity:1;fill:#000000;fill-opacity:1;stroke:none;stroke-width:1.37456334;stroke-linecap:round;stroke-linejoin:round;stroke-miterlimit:4;stroke-dasharray:none;stroke-opacity:1"
       d="m -54.088492,202.85673 c 0.474193,-0.005 0.886261,2.39013 0.919793,5.34711 0.03353,2.957 -0.324105,5.36123 -0.798299,5.36661 -0.474195,0.005 -0.886262,-2.39014 -0.919795,-5.34713 -0.03353,-2.95698 0.324106,-5.36121 0.798301,-5.36659 z"
       id="path7605"
       inkscape:connector-curvature="0" />
  </g>
</svg>
